<?xml version="1.0" encoding="UTF-8" standalone="no"?>
<svg width="1033px" height="408px" viewBox="0 0 1033 408" version="1.1" xmlns="http://www.w3.org/2000/svg" xmlns:xlink="http://www.w3.org/1999/xlink">
    <!-- Generator: Sketch 40.2 (33826) - http://www.bohemiancoding.com/sketch -->
    <title>banner/banner</title>
    <desc>Created with Sketch.</desc>
    <defs></defs>
    <g id="brand" stroke="none" stroke-width="1" fill="none" fill-rule="evenodd">
        <g id="banner/banner">
            <g id="logo" transform="translate(109.000000, 46.000000)">
                <g id="line" transform="translate(0.000000, 22.000000)" fill="#000000">
                    <path d="M29.4428013,166.033301 L16.6682473,166.033301 L16.6682473,214.847799 L0.243820865,214.847799 L0.243820865,102.727 L16.6682473,102.727 L16.6682473,149.100772 L29.4428013,149.100772 L29.4428013,102.727 L45.8672277,102.727 L45.8672277,214.847799 L29.4428013,214.847799 L29.4428013,166.033301 Z M53.4711289,214.847799 L70.3517894,102.727 L90.4260885,102.727 L107.306749,214.847799 L91.3385566,214.847799 L88.2969962,191.966003 L72.4808818,191.966003 L69.4393213,214.847799 L53.4711289,214.847799 Z M81.3014071,139.185327 L80.845173,136.286967 L79.9327049,136.286967 L79.4764708,139.185327 L74.7620521,174.575838 L86.0158258,174.575838 L81.3014071,139.185327 Z M157.644575,176.406382 L157.644575,191.813458 C157.492497,196.389817 156.580028,200.50854 154.90717,204.017082 C153.538468,207.067988 151.409376,209.966349 148.367815,212.254528 C145.326255,214.695253 141.220148,216.068161 135.745339,216.068161 C130.27053,216.068161 126.012346,214.695253 122.970785,212.254528 C119.929225,209.966349 117.952211,207.067988 116.583508,204.017082 C114.91065,200.50854 113.998182,196.389817 113.846104,191.813458 L113.846104,125.761341 C113.998182,121.337527 114.91065,117.218803 116.583508,113.710261 C117.952211,110.659355 119.929225,107.608449 122.970785,105.32027 C126.012346,103.03209 130.27053,101.506637 135.745339,101.506637 C141.220148,101.506637 145.326255,103.03209 148.367815,105.32027 C151.409376,107.608449 153.538468,110.659355 154.90717,113.710261 C156.580028,117.218803 157.492497,121.337527 157.644575,125.761341 L157.644575,141.168416 L142.284694,141.168416 L142.284694,125.761341 C142.284694,122.710434 141.524304,120.5748 139.851446,118.744257 C139.091056,117.98153 137.722354,117.523894 136.049495,117.523894 C133.160013,117.523894 131.791311,119.659528 131.030921,121.642617 C130.574687,122.86298 130.422609,124.235887 130.27053,125.761341 L130.27053,191.813458 C130.422609,195.016909 131.335077,197.152543 132.855857,198.830542 C133.616247,199.593268 134.680793,200.050904 136.049495,200.050904 C139.54729,200.050904 140.915992,198.22036 141.676382,195.932181 C142.132616,194.864364 142.284694,193.491456 142.284694,191.813458 L142.284694,176.406382 L157.644575,176.406382 Z M183.954073,102.727 L183.954073,141.931143 L184.562385,141.931143 L185.322775,140.100599 L199.009797,102.727 L214.977989,102.727 L199.922265,139.642963 L216.955004,214.847799 L200.986811,214.847799 L189.580959,166.033301 L189.124725,163.745121 L188.668491,163.745121 L187.756023,166.033301 L183.954073,175.186019 L183.954073,214.847799 L167.529646,214.847799 L167.529646,102.727 L183.954073,102.727 Z M224.558905,102.727 L262.122176,102.727 L262.122176,119.659528 L240.983331,119.659528 L240.983331,149.100772 L256.191133,149.100772 L256.191133,167.101118 L240.983331,167.101118 L240.983331,197.91527 L262.122176,197.91527 L262.122176,214.847799 L224.558905,214.847799 L224.558905,102.727 Z M300.597916,214.847799 L292.081547,167.558754 L287.671284,167.558754 L287.671284,214.847799 L271.246858,214.847799 L271.246858,102.727 L287.671284,102.727 C307.289349,102.727 315.65364,113.862807 315.65364,135.066604 C315.65364,146.202411 312.764158,156.270401 306.528959,160.54167 L317.022343,214.847799 L300.597916,214.847799 Z M287.671284,152.304224 C289.952455,152.304224 292.994015,151.999133 295.427263,149.863499 C297.860512,147.727864 299.837526,143.609141 299.837526,135.676785 C299.837526,127.744429 297.860512,123.473161 295.427263,121.337527 C292.994015,119.201892 289.952455,119.049347 287.671284,119.049347 L287.671284,152.304224 Z" id="HACKER"></path>
                    <path d="M526.423292,132.778425 C526.423292,129.117337 526.271214,124.998614 525.206668,121.795163 C524.142122,118.744257 522.469264,116.608622 519.883937,116.608622 C515.625752,116.761168 514.25705,121.184981 514.25705,127.744429 C514.25705,131.558062 515.929909,135.52424 518.363157,139.795509 C520.796405,144.066777 523.990044,148.490591 527.183682,153.219495 C530.985633,158.863672 534.787583,164.660393 537.677066,170.30457 C540.566548,175.948746 542.543563,181.745467 542.543563,187.84728 C542.543563,195.322 541.326938,202.339084 537.829144,207.525624 C534.331349,212.712164 528.704462,216.068161 519.731859,216.068161 C509.238476,216.068161 503.307433,212.101983 499.961716,206.000171 C496.616,199.898359 495.85561,191.813458 495.85561,183.423466 L511.97588,181.898013 C511.97588,186.626917 512.127958,191.355822 513.344582,194.864364 C514.409128,198.525451 516.234065,200.966176 519.731859,200.966176 C524.598356,200.966176 526.423292,195.779635 526.423292,188.610006 C526.423292,184.948919 524.598356,180.67765 522.165107,176.253836 C520.796405,174.118202 519.427703,171.830023 517.906923,169.541843 C514.713284,164.965484 511.21549,159.778943 507.565617,154.134767 C503.915745,148.490591 501.17834,142.693869 499.505482,136.744602 C498.593014,133.846242 498.13678,130.795336 498.13678,127.744429 C498.13678,121.642617 499.505482,115.083169 503.003277,110.049174 C506.501071,105.167724 511.823802,101.659182 519.579781,101.506637 C529.464853,101.354092 535.243817,105.472815 538.437456,111.422082 C541.631094,117.523894 542.543563,124.998614 542.543563,131.252972 L526.423292,132.778425 Z M566.222286,102.727 L582.646712,102.727 C589.794379,102.727 596.942046,104.557543 602.416855,109.744084 C607.891664,114.930624 611.541536,123.473161 611.541536,136.286967 C611.541536,149.100772 607.891664,157.490764 602.416855,162.677304 C596.942046,167.863845 589.794379,169.999479 582.646712,169.999479 L582.646712,214.847799 L566.222286,214.847799 L566.222286,102.727 Z M582.646712,153.219495 C587.665287,153.219495 590.858925,152.304224 592.683862,149.710953 C594.508798,147.270229 594.965032,143.151505 594.965032,136.897148 C594.965032,130.64279 594.508798,126.218976 592.683862,123.473161 C590.858925,120.727345 587.665287,119.506983 582.646712,119.506983 L582.646712,153.219495 Z M630.049607,214.847799 L646.930267,102.727 L667.004566,102.727 L683.885227,214.847799 L667.917034,214.847799 L664.875474,191.966003 L649.059359,191.966003 L646.017799,214.847799 L630.049607,214.847799 Z M657.879885,139.185327 L657.423651,136.286967 L656.511183,136.286967 L656.054948,139.185327 L651.34053,174.575838 L662.594303,174.575838 L657.879885,139.185327 Z M749.08125,176.406382 L749.08125,191.813458 C748.929172,196.389817 748.016704,200.50854 746.343846,204.017082 C744.975143,207.067988 742.846051,209.966349 739.804491,212.254528 C736.76293,214.695253 732.656823,216.068161 727.182015,216.068161 C721.707206,216.068161 717.449021,214.695253 714.407461,212.254528 C711.3659,209.966349 709.388886,207.067988 708.020184,204.017082 C706.347325,200.50854 705.434857,196.389817 705.282779,191.813458 L705.282779,125.761341 C705.434857,121.337527 706.347325,117.218803 708.020184,113.710261 C709.388886,110.659355 711.3659,107.608449 714.407461,105.32027 C717.449021,103.03209 721.707206,101.506637 727.182015,101.506637 C732.656823,101.506637 736.76293,103.03209 739.804491,105.32027 C742.846051,107.608449 744.975143,110.659355 746.343846,113.710261 C748.016704,117.218803 748.929172,121.337527 749.08125,125.761341 L749.08125,141.168416 L733.72137,141.168416 L733.72137,125.761341 C733.72137,122.710434 732.960979,120.5748 731.288121,118.744257 C730.527731,117.98153 729.159029,117.523894 727.486171,117.523894 C724.596688,117.523894 723.227986,119.659528 722.467596,121.642617 C722.011362,122.86298 721.859284,124.235887 721.707206,125.761341 L721.707206,191.813458 C721.859284,195.016909 722.771752,197.152543 724.292532,198.830542 C725.052922,199.593268 726.117468,200.050904 727.486171,200.050904 C730.983965,200.050904 732.352667,198.22036 733.113058,195.932181 C733.569292,194.864364 733.72137,193.491456 733.72137,191.813458 L733.72137,176.406382 L749.08125,176.406382 Z M773.824519,102.727 L811.387791,102.727 L811.387791,119.659528 L790.248946,119.659528 L790.248946,149.100772 L805.456748,149.100772 L805.456748,167.101118 L790.248946,167.101118 L790.248946,197.91527 L811.387791,197.91527 L811.387791,214.847799 L773.824519,214.847799 L773.824519,102.727 Z" id="SPACE"></path>
                    <g id="wrench" transform="translate(325.307973, 104.383957)">
                        <g id="Layer_1">
                            <path d="M75.3698463,60.9708474 C85.6340815,51.2634704 94.3885104,42.9729408 95.2036717,42.1653694 C97.2324893,40.130318 96.5477633,38.2224573 95.9391181,36.7724831 C90.8417138,24.7656796 96.5984838,13.9544688 102.076291,8.15457225 C107.73162,2.12573236 115.035364,0.192433489 118.458993,0.0143664882 C121.857263,-0.163700513 126.447463,1.31171178 129.668211,4.54235594 L115.339686,18.965783 L117.850348,32.9821998 L131.823829,35.5260141 L146.152354,21.102587 C149.778865,24.7402415 150.920075,29.0901639 150.717193,32.3716844 C150.514312,35.678643 149.297021,42.1399313 142.627283,48.8301629 C135.957545,55.5203945 123.099914,59.5904974 114.071675,54.9098791 C112.778304,54.2484873 110.850927,53.5362193 108.695309,55.6475852 C107.757016,56.5689472 99.7525208,65.0721001 90.3281373,75.1116974 C101.037335,85.2323561 110.060494,93.7539234 110.060494,93.7539234 C114.980377,98.0020933 114.625334,105.862479 110.085854,110.441345 C105.470294,114.994773 97.6847066,115.274592 93.4495499,110.365031 C93.4495499,110.365031 85.2362614,101.589211 75.3698463,91.0613494 C65.5034313,101.589211 57.2901427,110.365031 57.2901427,110.365031 C53.054986,115.274592 45.2693985,114.994773 40.6538384,110.441345 C36.114359,105.862479 35.7593159,98.0020933 40.6791986,93.7539234 C40.6791986,93.7539234 49.702358,85.2323561 60.4115554,75.1116974 C50.9871718,65.0721001 42.9826771,56.5689472 42.0443839,55.6475852 C39.8887652,53.5362193 37.9613885,54.2484873 36.6680173,54.9098791 C27.6397789,59.5904974 14.7821474,55.5203945 8.11240952,48.8301629 C1.44267165,42.1399313 0.225381089,35.678643 0.0224993285,32.3716844 C-0.180382432,29.0901639 0.960827469,24.7402415 4.58733893,21.102587 L18.9158632,35.5260141 L32.8893445,32.9821998 L35.4000063,18.965783 L21.0714819,4.54235594 C24.2922299,1.31171178 28.8824297,-0.163700513 32.2806992,0.0143664882 C35.7043289,0.192433489 43.0080723,2.12573236 48.6634013,8.15457225 C54.1412089,13.9544688 59.8979788,24.7656796 54.8005746,36.7724831 C54.1919293,38.2224573 53.5072034,40.130318 55.536021,42.1653694 C56.3511823,42.9729408 65.1056112,51.2634704 75.3698463,60.9708474 Z M52.1673783,104.61601 C50.5696844,106.193175 47.982942,106.193175 46.4106084,104.61601 C44.8382747,103.013407 44.8382747,100.418717 46.4106084,98.841552 C48.0083022,97.2643871 50.5950447,97.2643871 52.1673783,98.841552 C53.7397119,100.444155 53.7397119,103.038846 52.1673783,104.61601 Z M98.5723143,104.61601 C100.170008,106.193175 102.756751,106.193175 104.329084,104.61601 C105.901418,103.013407 105.901418,100.418717 104.329084,98.841552 C102.73139,97.2643871 100.144648,97.2643871 98.5723143,98.841552 C96.9999807,100.444155 96.9999807,103.038846 98.5723143,104.61601 Z" id="Combined-Shape"></path>
                        </g>
                    </g>
                    <g id="baseline" transform="translate(142.379009, 109.988725)">
                        <polygon id="Line" points="2.11082433 166 72.0317544 166 73.5317544 166 73.5317544 163 72.0317544 163 2.11082433 163 0.610824335 163 0.610824335 166"></polygon>
                        <polygon id="Line" points="454.644312 166 524.565242 166 526.065242 166 526.065242 163 524.565242 163 454.644312 163 453.144312 163 453.144312 166"></polygon>
                    </g>
                </g>
                <g id="liege" transform="translate(291.000000, 0.000000)">
                    <polygon id="Rectangle-1" fill="#000000" points="197.5239 0.190646471 197.5239 80.9049997 31.53354 98.9451216 31.53354 18.2307683"></polygon>
                    <polygon id="Rectangle-1" fill="#000000" points="228.974705 87.184835 202.765701 91.6989608 202.765701 15.2327314 228.974705 10.7186056"></polygon>
                    <polygon id="Rectangle-1" fill="#000000" points="26.2917392 85.4301751 0.0827349888 89.9443009 0.0827349888 13.4780715 26.2917392 8.96394574"></polygon>
                    <path d="M72.0911003,29.384155 L72.0911003,72.8383063 L81.8356081,71.7408728 L81.8356081,78.5840462 L64.7316119,80.5103106 L64.7316119,30.2129859 L72.0911003,29.384155 Z M92.1934065,27.1202188 L92.1934065,77.4175435 L84.8339181,78.2463744 L84.8339181,27.9490497 L92.1934065,27.1202188 Z M114.476302,24.610703 L114.476302,32.2066255 L105.004368,33.2733616 L105.004368,46.4806863 L111.818709,45.7132503 L111.818709,53.7881949 L105.004368,54.5556309 L105.004368,68.3788413 L114.476302,67.3121052 L114.476302,74.9080277 L97.6448794,76.8035947 L97.6448794,26.50627 L114.476302,24.610703 Z M130.353717,33.155769 C130.353717,31.7871343 130.081143,30.8597875 129.399709,30.1153503 C129.058992,29.8115634 128.513844,29.6676631 127.900554,29.7367323 C126.605829,29.8825452 125.992538,30.9096587 125.719965,31.8299687 C125.515534,32.4004456 125.447391,33.0240056 125.447391,33.7083229 L125.447391,63.9551495 C125.447391,65.3922159 125.788108,66.3118884 126.469542,66.9878939 C126.810259,67.2916807 127.287263,67.4432554 127.900554,67.3741862 C129.195279,67.2283733 129.808569,66.3381233 130.081143,65.2809498 C130.285573,64.7789046 130.353717,64.1553446 130.353717,63.4025956 L130.353717,54.3011749 L127.42355,54.6311724 L127.42355,48.4038846 L137.713205,47.2450562 L137.713205,72.2910709 L133.352027,72.78223 L132.466162,70.486886 C131.103294,72.3511665 129.127135,73.8054942 126.742116,74.0740968 C124.357096,74.3426994 122.721655,73.9109984 121.495073,72.9542292 C120.268492,72.0658916 119.450771,70.857781 118.905624,69.5505412 C118.292333,68.0456805 118.019759,66.2287212 118.087903,64.1680948 L118.087903,34.5371538 C118.156046,32.5449592 118.564906,30.6512562 119.314484,28.9929083 C119.927775,27.5552044 120.813639,26.086803 122.176507,24.9068398 C123.539375,23.7268766 125.447391,22.8276772 127.900554,22.5514002 C130.353717,22.2751233 132.193589,22.7522329 133.556457,23.6252217 C134.919325,24.4982105 135.873333,25.7594041 136.486624,27.0589696 C137.236201,28.5484815 137.645062,30.3500922 137.713205,32.3269381 L137.713205,40.0597241 L130.353717,40.888555 L130.353717,33.155769 Z M159.927957,19.4919049 L159.927957,27.0878274 L150.456023,28.1545634 L150.456023,41.3618881 L157.270364,40.5944521 L157.270364,48.6693968 L150.456023,49.4368328 L150.456023,63.2600431 L159.927957,62.1933071 L159.927957,69.7892296 L143.096534,71.6847965 L143.096534,21.3874718 L159.927957,19.4919049 Z" id="LIEGE" fill="#FFFFFF"></path>
                </g>
            </g>
            <path d="M350.379009,325.97122 L355.983645,325.97122 L355.983645,353.761154 L363.404598,353.761154 L363.404598,358.137522 L350.379009,358.137522 L350.379009,325.97122 Z M365.687968,325.97122 L378.505978,325.97122 L378.505978,330.828988 L371.292604,330.828988 L371.292604,339.275377 L376.482081,339.275377 L376.482081,344.439491 L371.292604,344.439491 L371.292604,353.279753 L378.505978,353.279753 L378.505978,358.137522 L365.687968,358.137522 L365.687968,325.97122 Z M380.16661,358.137522 L385.92693,325.97122 L392.777041,325.97122 L398.537361,358.137522 L393.088409,358.137522 L392.050514,351.57297 L386.653457,351.57297 L385.615562,358.137522 L380.16661,358.137522 Z M389.663354,336.430738 L389.50767,335.599228 L389.196301,335.599228 L389.040617,336.430738 L387.431879,346.583911 L391.272092,346.583911 L389.663354,336.430738 Z M411.147791,358.137522 L408.241684,344.570782 L406.736735,344.570782 L406.736735,358.137522 L401.1321,358.137522 L401.1321,325.97122 L406.736735,325.97122 C413.431161,325.97122 416.285374,329.165968 416.285374,335.249119 C416.285374,338.443867 415.299373,341.33227 413.171688,342.557653 L416.752427,358.137522 L411.147791,358.137522 Z M406.736735,340.194414 C407.515157,340.194414 408.553053,340.106887 409.383369,339.494195 C410.213685,338.881504 410.888317,337.699885 410.888317,335.424174 C410.888317,333.148462 410.213685,331.923079 409.383369,331.310388 C408.553053,330.697697 407.515157,330.653933 406.736735,330.653933 L406.736735,340.194414 Z M425.782118,341.376034 L425.315065,339.888069 L425.003696,339.888069 L425.003696,358.137522 L419.866114,358.137522 L419.866114,325.97122 L424.848012,325.97122 L430.296963,342.732708 L430.764016,344.220672 L431.075385,344.220672 L431.075385,325.97122 L436.212968,325.97122 L436.212968,358.137522 L431.231069,358.137522 L425.782118,341.376034 Z M466.156253,361.988725 L461.900882,361.988725 L446.488133,321.988725 L450.587821,321.988725 L466.156253,361.988725 Z M485.720583,358.137522 L482.139844,337.918703 L481.932265,336.562029 L481.620896,336.562029 L481.620896,358.137522 L476.431419,358.137522 L476.431419,325.97122 L483.281529,325.97122 L486.602795,340.675815 L486.862269,342.382598 L486.966058,342.382598 L487.225532,340.675815 L490.546798,325.97122 L497.396908,325.97122 L497.396908,358.137522 L492.20743,358.137522 L492.20743,336.562029 L491.896062,336.562029 L491.688483,337.918703 L488.107743,358.137522 L485.720583,358.137522 Z M499.991647,358.137522 L505.751967,325.97122 L512.602077,325.97122 L518.362397,358.137522 L512.913446,358.137522 L511.87555,351.57297 L506.478494,351.57297 L505.440598,358.137522 L499.991647,358.137522 Z M509.488391,336.430738 L509.332706,335.599228 L509.021338,335.599228 L508.865653,336.430738 L507.256915,346.583911 L511.097129,346.583911 L509.488391,336.430738 Z M526.561772,325.97122 L526.561772,337.218484 L526.769351,337.218484 L527.028825,336.69332 L531.699354,325.97122 L537.148306,325.97122 L532.010723,336.562029 L537.822938,358.137522 L532.373986,358.137522 L528.481878,344.133145 L528.326194,343.47669 L528.17051,343.47669 L527.859141,344.133145 L526.561772,346.758966 L526.561772,358.137522 L520.957136,358.137522 L520.957136,325.97122 L526.561772,325.97122 Z M540.417677,325.97122 L553.235686,325.97122 L553.235686,330.828988 L546.022312,330.828988 L546.022312,339.275377 L551.21179,339.275377 L551.21179,344.439491 L546.022312,344.439491 L546.022312,353.279753 L553.235686,353.279753 L553.235686,358.137522 L540.417677,358.137522 L540.417677,325.97122 Z M582.141076,361.988725 L577.885704,361.988725 L562.472956,321.988725 L566.572643,321.988725 L582.141076,361.988725 Z M601.705406,334.592664 C601.705406,333.542336 601.653512,332.360716 601.290248,331.441679 C600.926985,330.566406 600.356142,329.953714 599.473931,329.953714 C598.020877,329.997478 597.553824,331.266624 597.553824,333.148462 C597.553824,334.242554 598.124667,335.38041 598.954983,336.605793 C599.7853,337.831176 600.87509,339.100322 601.96488,340.456996 C603.26225,342.076252 604.559619,343.739272 605.54562,345.358528 C606.53162,346.977784 607.206253,348.640804 607.206253,350.391351 C607.206253,352.535771 606.791094,354.5489 605.597515,356.036865 C604.403935,357.52483 602.483828,358.487631 599.422036,358.487631 C595.841297,358.487631 593.8174,357.349775 592.675715,355.599228 C591.53403,353.848681 591.274557,351.529206 591.274557,349.122204 L596.775403,348.684567 C596.775403,350.041241 596.827297,351.397915 597.242456,352.40448 C597.605719,353.454808 598.228456,354.155027 599.422036,354.155027 C601.082669,354.155027 601.705406,352.667062 601.705406,350.610169 C601.705406,349.559841 601.082669,348.334458 600.252353,347.065311 C599.7853,346.45262 599.318247,345.796165 598.799299,345.13971 C597.709509,343.826799 596.515929,342.338834 595.270454,340.719578 C594.02498,339.100322 593.090874,337.437303 592.520031,335.730519 C592.208662,334.899009 592.052978,334.023736 592.052978,333.148462 C592.052978,331.397915 592.520031,329.516077 593.713611,328.071876 C594.907191,326.671438 596.723508,325.664874 599.370141,325.62111 C602.743302,325.577346 604.715303,326.758966 605.805094,328.465749 C606.894884,330.216296 607.206253,332.360716 607.206253,334.155027 L601.705406,334.592664 Z M620.179946,344.133145 L615.820785,344.133145 L615.820785,358.137522 L610.21615,358.137522 L610.21615,325.97122 L615.820785,325.97122 L615.820785,339.275377 L620.179946,339.275377 L620.179946,325.97122 L625.784582,325.97122 L625.784582,358.137522 L620.179946,358.137522 L620.179946,344.133145 Z M628.379321,358.137522 L634.139641,325.97122 L640.989751,325.97122 L646.750071,358.137522 L641.30112,358.137522 L640.263224,351.57297 L634.866168,351.57297 L633.828272,358.137522 L628.379321,358.137522 Z M637.876065,336.430738 L637.72038,335.599228 L637.409012,335.599228 L637.253327,336.430738 L635.644589,346.583911 L639.484803,346.583911 L637.876065,336.430738 Z M659.360502,358.137522 L656.454394,344.570782 L654.949446,344.570782 L654.949446,358.137522 L649.34481,358.137522 L649.34481,325.97122 L654.949446,325.97122 C661.643872,325.97122 664.498085,329.165968 664.498085,335.249119 C664.498085,338.443867 663.512084,341.33227 661.384398,342.557653 L664.965137,358.137522 L659.360502,358.137522 Z M654.949446,340.194414 C655.727867,340.194414 656.765763,340.106887 657.596079,339.494195 C658.426396,338.881504 659.101028,337.699885 659.101028,335.424174 C659.101028,333.148462 658.426396,331.923079 657.596079,331.310388 C656.765763,330.697697 655.727867,330.653933 654.949446,330.653933 L654.949446,340.194414 Z M668.078824,325.97122 L680.896834,325.97122 L680.896834,330.828988 L673.68346,330.828988 L673.68346,339.275377 L678.872937,339.275377 L678.872937,344.439491 L673.68346,344.439491 L673.68346,353.279753 L680.896834,353.279753 L680.896834,358.137522 L668.078824,358.137522 L668.078824,325.97122 Z" id="LEARN-\-MAKE-\-SHARE" fill="#000000"></path>
            <polygon id="Path-128" fill="#000000" points="495.798393 303.509385 498.307879 297.006314 502.457319 316 507.471297 298.484285 511.314021 315.999999 515.811711 298.484285 520.181846 315.999999 525.206946 303.509385 546.785319 303.509385 546.785319 301.144632 523.540071 301.144632 520.773034 307.647703 515.811713 288.611841 511.609615 306.169733 508.04699 288.567698 503.037385 306.465327 499.194661 288.567698 493.933376 301.144632 472 301.144632 472 303.509385"></polygon>
        </g>
    </g>
</svg>