<?xml version="1.0" encoding="UTF-8" standalone="no"?>
<svg width="813px" height="321px" viewBox="0 0 813 321" version="1.1" xmlns="http://www.w3.org/2000/svg" xmlns:xlink="http://www.w3.org/1999/xlink">
    <!-- Generator: Sketch 3.8.1 (29687) - http://www.bohemiancoding.com/sketch -->
    <title>banner/banner</title>
    <desc>Created with Sketch.</desc>
    <defs></defs>
    <g id="brand" stroke="none" stroke-width="1" fill="none" fill-rule="evenodd">
        <g id="banner/banner">
            <g id="logo" transform="translate(0.000000, 3.000000)">
                <g id="line" transform="translate(0.000000, 22.000000)" fill="#000000">
                    <path d="M29.4428013,166.033301 L16.6682473,166.033301 L16.6682473,214.847799 L0.243820865,214.847799 L0.243820865,102.727 L16.6682473,102.727 L16.6682473,149.100772 L29.4428013,149.100772 L29.4428013,102.727 L45.8672277,102.727 L45.8672277,214.847799 L29.4428013,214.847799 L29.4428013,166.033301 Z M53.4711289,214.847799 L70.3517894,102.727 L90.4260885,102.727 L107.306749,214.847799 L91.3385566,214.847799 L88.2969962,191.966003 L72.4808818,191.966003 L69.4393213,214.847799 L53.4711289,214.847799 Z M81.3014071,139.185327 L80.845173,136.286967 L79.9327049,136.286967 L79.4764708,139.185327 L74.7620521,174.575838 L86.0158258,174.575838 L81.3014071,139.185327 Z M157.644575,176.406382 L157.644575,191.813458 C157.492497,196.389817 156.580028,200.50854 154.90717,204.017082 C153.538468,207.067988 151.409376,209.966349 148.367815,212.254528 C145.326255,214.695253 141.220148,216.068161 135.745339,216.068161 C130.27053,216.068161 126.012346,214.695253 122.970785,212.254528 C119.929225,209.966349 117.952211,207.067988 116.583508,204.017082 C114.91065,200.50854 113.998182,196.389817 113.846104,191.813458 L113.846104,125.761341 C113.998182,121.337527 114.91065,117.218803 116.583508,113.710261 C117.952211,110.659355 119.929225,107.608449 122.970785,105.32027 C126.012346,103.03209 130.27053,101.506637 135.745339,101.506637 C141.220148,101.506637 145.326255,103.03209 148.367815,105.32027 C151.409376,107.608449 153.538468,110.659355 154.90717,113.710261 C156.580028,117.218803 157.492497,121.337527 157.644575,125.761341 L157.644575,141.168416 L142.284694,141.168416 L142.284694,125.761341 C142.284694,122.710434 141.524304,120.5748 139.851446,118.744257 C139.091056,117.98153 137.722354,117.523894 136.049495,117.523894 C133.160013,117.523894 131.791311,119.659528 131.030921,121.642617 C130.574687,122.86298 130.422609,124.235887 130.27053,125.761341 L130.27053,191.813458 C130.422609,195.016909 131.335077,197.152543 132.855857,198.830542 C133.616247,199.593268 134.680793,200.050904 136.049495,200.050904 C139.54729,200.050904 140.915992,198.22036 141.676382,195.932181 C142.132616,194.864364 142.284694,193.491456 142.284694,191.813458 L142.284694,176.406382 L157.644575,176.406382 Z M183.954073,102.727 L183.954073,141.931143 L184.562385,141.931143 L185.322775,140.100599 L199.009797,102.727 L214.977989,102.727 L199.922265,139.642963 L216.955004,214.847799 L200.986811,214.847799 L189.580959,166.033301 L189.124725,163.745121 L188.668491,163.745121 L187.756023,166.033301 L183.954073,175.186019 L183.954073,214.847799 L167.529646,214.847799 L167.529646,102.727 L183.954073,102.727 Z M224.558905,102.727 L262.122176,102.727 L262.122176,119.659528 L240.983331,119.659528 L240.983331,149.100772 L256.191133,149.100772 L256.191133,167.101118 L240.983331,167.101118 L240.983331,197.91527 L262.122176,197.91527 L262.122176,214.847799 L224.558905,214.847799 L224.558905,102.727 Z M300.597916,214.847799 L292.081547,167.558754 L287.671284,167.558754 L287.671284,214.847799 L271.246858,214.847799 L271.246858,102.727 L287.671284,102.727 C307.289349,102.727 315.65364,113.862807 315.65364,135.066604 C315.65364,146.202411 312.764158,156.270401 306.528959,160.54167 L317.022343,214.847799 L300.597916,214.847799 Z M287.671284,152.304224 C289.952455,152.304224 292.994015,151.999133 295.427263,149.863499 C297.860512,147.727864 299.837526,143.609141 299.837526,135.676785 C299.837526,127.744429 297.860512,123.473161 295.427263,121.337527 C292.994015,119.201892 289.952455,119.049347 287.671284,119.049347 L287.671284,152.304224 Z" id="HACKER"></path>
                    <path d="M526.423292,132.778425 C526.423292,129.117337 526.271214,124.998614 525.206668,121.795163 C524.142122,118.744257 522.469264,116.608622 519.883937,116.608622 C515.625752,116.761168 514.25705,121.184981 514.25705,127.744429 C514.25705,131.558062 515.929909,135.52424 518.363157,139.795509 C520.796405,144.066777 523.990044,148.490591 527.183682,153.219495 C530.985633,158.863672 534.787583,164.660393 537.677066,170.30457 C540.566548,175.948746 542.543563,181.745467 542.543563,187.84728 C542.543563,195.322 541.326938,202.339084 537.829144,207.525624 C534.331349,212.712164 528.704462,216.068161 519.731859,216.068161 C509.238476,216.068161 503.307433,212.101983 499.961716,206.000171 C496.616,199.898359 495.85561,191.813458 495.85561,183.423466 L511.97588,181.898013 C511.97588,186.626917 512.127958,191.355822 513.344582,194.864364 C514.409128,198.525451 516.234065,200.966176 519.731859,200.966176 C524.598356,200.966176 526.423292,195.779635 526.423292,188.610006 C526.423292,184.948919 524.598356,180.67765 522.165107,176.253836 C520.796405,174.118202 519.427703,171.830023 517.906923,169.541843 C514.713284,164.965484 511.21549,159.778943 507.565617,154.134767 C503.915745,148.490591 501.17834,142.693869 499.505482,136.744602 C498.593014,133.846242 498.13678,130.795336 498.13678,127.744429 C498.13678,121.642617 499.505482,115.083169 503.003277,110.049174 C506.501071,105.167724 511.823802,101.659182 519.579781,101.506637 C529.464853,101.354092 535.243817,105.472815 538.437456,111.422082 C541.631094,117.523894 542.543563,124.998614 542.543563,131.252972 L526.423292,132.778425 Z M566.222286,102.727 L582.646712,102.727 C589.794379,102.727 596.942046,104.557543 602.416855,109.744084 C607.891664,114.930624 611.541536,123.473161 611.541536,136.286967 C611.541536,149.100772 607.891664,157.490764 602.416855,162.677304 C596.942046,167.863845 589.794379,169.999479 582.646712,169.999479 L582.646712,214.847799 L566.222286,214.847799 L566.222286,102.727 Z M582.646712,153.219495 C587.665287,153.219495 590.858925,152.304224 592.683862,149.710953 C594.508798,147.270229 594.965032,143.151505 594.965032,136.897148 C594.965032,130.64279 594.508798,126.218976 592.683862,123.473161 C590.858925,120.727345 587.665287,119.506983 582.646712,119.506983 L582.646712,153.219495 Z M630.049607,214.847799 L646.930267,102.727 L667.004566,102.727 L683.885227,214.847799 L667.917034,214.847799 L664.875474,191.966003 L649.059359,191.966003 L646.017799,214.847799 L630.049607,214.847799 Z M657.879885,139.185327 L657.423651,136.286967 L656.511183,136.286967 L656.054948,139.185327 L651.34053,174.575838 L662.594303,174.575838 L657.879885,139.185327 Z M749.08125,176.406382 L749.08125,191.813458 C748.929172,196.389817 748.016704,200.50854 746.343846,204.017082 C744.975143,207.067988 742.846051,209.966349 739.804491,212.254528 C736.76293,214.695253 732.656823,216.068161 727.182015,216.068161 C721.707206,216.068161 717.449021,214.695253 714.407461,212.254528 C711.3659,209.966349 709.388886,207.067988 708.020184,204.017082 C706.347325,200.50854 705.434857,196.389817 705.282779,191.813458 L705.282779,125.761341 C705.434857,121.337527 706.347325,117.218803 708.020184,113.710261 C709.388886,110.659355 711.3659,107.608449 714.407461,105.32027 C717.449021,103.03209 721.707206,101.506637 727.182015,101.506637 C732.656823,101.506637 736.76293,103.03209 739.804491,105.32027 C742.846051,107.608449 744.975143,110.659355 746.343846,113.710261 C748.016704,117.218803 748.929172,121.337527 749.08125,125.761341 L749.08125,141.168416 L733.72137,141.168416 L733.72137,125.761341 C733.72137,122.710434 732.960979,120.5748 731.288121,118.744257 C730.527731,117.98153 729.159029,117.523894 727.486171,117.523894 C724.596688,117.523894 723.227986,119.659528 722.467596,121.642617 C722.011362,122.86298 721.859284,124.235887 721.707206,125.761341 L721.707206,191.813458 C721.859284,195.016909 722.771752,197.152543 724.292532,198.830542 C725.052922,199.593268 726.117468,200.050904 727.486171,200.050904 C730.983965,200.050904 732.352667,198.22036 733.113058,195.932181 C733.569292,194.864364 733.72137,193.491456 733.72137,191.813458 L733.72137,176.406382 L749.08125,176.406382 Z M773.824519,102.727 L811.387791,102.727 L811.387791,119.659528 L790.248946,119.659528 L790.248946,149.100772 L805.456748,149.100772 L805.456748,167.101118 L790.248946,167.101118 L790.248946,197.91527 L811.387791,197.91527 L811.387791,214.847799 L773.824519,214.847799 L773.824519,102.727 Z" id="SPACE"></path>
                    <g id="wrench" transform="translate(325.307973, 104.383957)">
                        <g id="Layer_1">
                            <path d="M146.152354,21.102587 L131.823829,35.5260141 L117.850348,32.9821998 L115.339686,18.965783 L129.668211,4.54235594 C126.447463,1.31171178 121.857263,-0.163700513 118.458993,0.0143664882 C115.035364,0.192433489 107.73162,2.12573236 102.076291,8.15457225 C96.5984838,13.9544688 90.8417138,24.7656796 95.9391181,36.7724831 C96.5477633,38.2224573 97.2324893,40.130318 95.2036717,42.1653694 C93.1494939,44.2004209 40.6791986,93.7539234 40.6791986,93.7539234 C35.7593159,98.0020933 36.114359,105.862479 40.6538384,110.441345 C45.2693985,114.994773 53.054986,115.274592 57.2901427,110.365031 C57.2901427,110.365031 106.286088,58.0133325 108.695309,55.6475852 C110.850927,53.5362193 112.778304,54.2484873 114.071675,54.9098791 C123.099914,59.5904974 135.957545,55.5203945 142.627283,48.8301629 C149.297021,42.1399313 150.514312,35.678643 150.717193,32.3716844 C150.920075,29.0901639 149.778865,24.7402415 146.152354,21.102587 L146.152354,21.102587 Z M52.1673783,104.61601 C50.5696844,106.193175 47.982942,106.193175 46.4106084,104.61601 C44.8382747,103.013407 44.8382747,100.418717 46.4106084,98.841552 C48.0083022,97.2643871 50.5950447,97.2643871 52.1673783,98.841552 C53.7397119,100.444155 53.7397119,103.038846 52.1673783,104.61601 L52.1673783,104.61601 Z" id="Shape"></path>
                            <path d="M4.58733893,21.102587 L18.9158632,35.5260141 L32.8893445,32.9821998 L35.4000063,18.965783 L21.0714819,4.54235594 C24.2922299,1.31171178 28.8824297,-0.163700513 32.2806992,0.0143664882 C35.7043289,0.192433489 43.0080723,2.12573236 48.6634013,8.15457225 C54.1412089,13.9544688 59.8979788,24.7656796 54.8005746,36.7724831 C54.1919293,38.2224573 53.5072034,40.130318 55.536021,42.1653694 C57.5901988,44.2004209 110.060494,93.7539234 110.060494,93.7539234 C114.980377,98.0020933 114.625334,105.862479 110.085854,110.441345 C105.470294,114.994773 97.6847066,115.274592 93.4495499,110.365031 C93.4495499,110.365031 44.4536048,58.0133325 42.0443839,55.6475852 C39.8887652,53.5362193 37.9613885,54.2484873 36.6680173,54.9098791 C27.6397789,59.5904974 14.7821474,55.5203945 8.11240952,48.8301629 C1.44267165,42.1399313 0.225381089,35.678643 0.0224993285,32.3716844 C-0.180382432,29.0901639 0.960827469,24.7402415 4.58733893,21.102587 L4.58733893,21.102587 Z M98.5723143,104.61601 C100.170008,106.193175 102.756751,106.193175 104.329084,104.61601 C105.901418,103.013407 105.901418,100.418717 104.329084,98.841552 C102.73139,97.2643871 100.144648,97.2643871 98.5723143,98.841552 C96.9999807,100.444155 96.9999807,103.038846 98.5723143,104.61601 L98.5723143,104.61601 Z" id="Shape"></path>
                        </g>
                    </g>
                    <polygon id="Path-128" points="386.39354 236.184374 387.184932 236.184374 387.497458 235.457306 389.735178 230.176469 389.735178 229.876073 392.95859 244.246665 393.952014 248.877864 395.286361 244.333151 400.578202 226.309436 398.248202 226.212322 401.944361 244.236038 403.015732 249.460404 404.288317 244.281372 408.717079 226.257657 406.386538 226.270381 411.024563 244.294097 411.888855 247.652799 413.287734 244.479312 417.260178 235.467454 416.160678 236.184374 439 236.184374 439 233.781212 416.160678 233.781212 415.377197 233.781212 415.061178 234.498131 411.088734 243.509989 413.351904 243.695204 408.713879 225.671489 407.523313 221.04486 406.383338 225.684213 401.954575 243.707929 404.298531 243.753263 400.602372 225.729548 399.632474 221 398.272371 225.632434 392.98053 243.656149 395.308301 243.742636 391.442092 225.71892 390.651641 222.033953 389.163318 225.496422 385.289622 234.50828 386.39354 233.781212 363 233.781212 363 236.184374"></polygon>
                    <g id="baseline" transform="translate(142.379009, 109.988725)">
                        <polygon id="Line" points="2.11082433 166 72.0317544 166 73.5317544 166 73.5317544 163 72.0317544 163 2.11082433 163 0.610824335 163 0.610824335 166"></polygon>
                        <polygon id="Line" points="454.644312 166 524.565242 166 526.065242 166 526.065242 163 524.565242 163 454.644312 163 453.144312 163 453.144312 166"></polygon>
                    </g>
                </g>
                <g id="liege" transform="translate(291.000000, 0.000000)">
                    <polygon id="Rectangle-1" fill="#000000" points="197.5239 0.190646471 197.5239 80.9049997 31.53354 98.9451216 31.53354 18.2307683"></polygon>
                    <polygon id="Rectangle-1" fill="#000000" points="228.974705 87.184835 202.765701 91.6989608 202.765701 15.2327314 228.974705 10.7186056"></polygon>
                    <polygon id="Rectangle-1" fill="#000000" points="26.2917392 85.4301751 0.0827349888 89.9443009 0.0827349888 13.4780715 26.2917392 8.96394574"></polygon>
                    <path d="M72.0911003,29.384155 L72.0911003,72.8383063 L81.8356081,71.7408728 L81.8356081,78.5840462 L64.7316119,80.5103106 L64.7316119,30.2129859 L72.0911003,29.384155 Z M92.1934065,27.1202188 L92.1934065,77.4175435 L84.8339181,78.2463744 L84.8339181,27.9490497 L92.1934065,27.1202188 Z M114.476302,24.610703 L114.476302,32.2066255 L105.004368,33.2733616 L105.004368,46.4806863 L111.818709,45.7132503 L111.818709,53.7881949 L105.004368,54.5556309 L105.004368,68.3788413 L114.476302,67.3121052 L114.476302,74.9080277 L97.6448794,76.8035947 L97.6448794,26.50627 L114.476302,24.610703 Z M130.353717,33.155769 C130.353717,31.7871343 130.081143,30.8597875 129.399709,30.1153503 C129.058992,29.8115634 128.513844,29.6676631 127.900554,29.7367323 C126.605829,29.8825452 125.992538,30.9096587 125.719965,31.8299687 C125.515534,32.4004456 125.447391,33.0240056 125.447391,33.7083229 L125.447391,63.9551495 C125.447391,65.3922159 125.788108,66.3118884 126.469542,66.9878939 C126.810259,67.2916807 127.287263,67.4432554 127.900554,67.3741862 C129.195279,67.2283733 129.808569,66.3381233 130.081143,65.2809498 C130.285573,64.7789046 130.353717,64.1553446 130.353717,63.4025956 L130.353717,54.3011749 L127.42355,54.6311724 L127.42355,48.4038846 L137.713205,47.2450562 L137.713205,72.2910709 L133.352027,72.78223 L132.466162,70.486886 C131.103294,72.3511665 129.127135,73.8054942 126.742116,74.0740968 C124.357096,74.3426994 122.721655,73.9109984 121.495073,72.9542292 C120.268492,72.0658916 119.450771,70.857781 118.905624,69.5505412 C118.292333,68.0456805 118.019759,66.2287212 118.087903,64.1680948 L118.087903,34.5371538 C118.156046,32.5449592 118.564906,30.6512562 119.314484,28.9929083 C119.927775,27.5552044 120.813639,26.086803 122.176507,24.9068398 C123.539375,23.7268766 125.447391,22.8276772 127.900554,22.5514002 C130.353717,22.2751233 132.193589,22.7522329 133.556457,23.6252217 C134.919325,24.4982105 135.873333,25.7594041 136.486624,27.0589696 C137.236201,28.5484815 137.645062,30.3500922 137.713205,32.3269381 L137.713205,40.0597241 L130.353717,40.888555 L130.353717,33.155769 Z M159.927957,19.4919049 L159.927957,27.0878274 L150.456023,28.1545634 L150.456023,41.3618881 L157.270364,40.5944521 L157.270364,48.6693968 L150.456023,49.4368328 L150.456023,63.2600431 L159.927957,62.1933071 L159.927957,69.7892296 L143.096534,71.6847965 L143.096534,21.3874718 L159.927957,19.4919049 Z" id="LIEGE" fill="#FFFFFF"></path>
                </g>
            </g>
            <path d="M241.379009,282.97122 L246.983645,282.97122 L246.983645,310.761154 L254.404598,310.761154 L254.404598,315.137522 L241.379009,315.137522 L241.379009,282.97122 Z M256.687968,282.97122 L269.505978,282.97122 L269.505978,287.828988 L262.292604,287.828988 L262.292604,296.275377 L267.482081,296.275377 L267.482081,301.439491 L262.292604,301.439491 L262.292604,310.279753 L269.505978,310.279753 L269.505978,315.137522 L256.687968,315.137522 L256.687968,282.97122 Z M271.16661,315.137522 L276.92693,282.97122 L283.777041,282.97122 L289.537361,315.137522 L284.088409,315.137522 L283.050514,308.57297 L277.653457,308.57297 L276.615562,315.137522 L271.16661,315.137522 Z M280.663354,293.430738 L280.50767,292.599228 L280.196301,292.599228 L280.040617,293.430738 L278.431879,303.583911 L282.272092,303.583911 L280.663354,293.430738 Z M302.147791,315.137522 L299.241684,301.570782 L297.736735,301.570782 L297.736735,315.137522 L292.1321,315.137522 L292.1321,282.97122 L297.736735,282.97122 C304.431161,282.97122 307.285374,286.165968 307.285374,292.249119 C307.285374,295.443867 306.299373,298.33227 304.171688,299.557653 L307.752427,315.137522 L302.147791,315.137522 Z M297.736735,297.194414 C298.515157,297.194414 299.553053,297.106887 300.383369,296.494195 C301.213685,295.881504 301.888317,294.699885 301.888317,292.424174 C301.888317,290.148462 301.213685,288.923079 300.383369,288.310388 C299.553053,287.697697 298.515157,287.653933 297.736735,287.653933 L297.736735,297.194414 Z M316.782118,298.376034 L316.315065,296.888069 L316.003696,296.888069 L316.003696,315.137522 L310.866114,315.137522 L310.866114,282.97122 L315.848012,282.97122 L321.296963,299.732708 L321.764016,301.220672 L322.075385,301.220672 L322.075385,282.97122 L327.212968,282.97122 L327.212968,315.137522 L322.231069,315.137522 L316.782118,298.376034 Z M357.156253,318.988725 L352.900882,318.988725 L337.488133,278.988725 L341.587821,278.988725 L357.156253,318.988725 Z M376.720583,315.137522 L373.139844,294.918703 L372.932265,293.562029 L372.620896,293.562029 L372.620896,315.137522 L367.431419,315.137522 L367.431419,282.97122 L374.281529,282.97122 L377.602795,297.675815 L377.862269,299.382598 L377.966058,299.382598 L378.225532,297.675815 L381.546798,282.97122 L388.396908,282.97122 L388.396908,315.137522 L383.20743,315.137522 L383.20743,293.562029 L382.896062,293.562029 L382.688483,294.918703 L379.107743,315.137522 L376.720583,315.137522 Z M390.991647,315.137522 L396.751967,282.97122 L403.602077,282.97122 L409.362397,315.137522 L403.913446,315.137522 L402.87555,308.57297 L397.478494,308.57297 L396.440598,315.137522 L390.991647,315.137522 Z M400.488391,293.430738 L400.332706,292.599228 L400.021338,292.599228 L399.865653,293.430738 L398.256915,303.583911 L402.097129,303.583911 L400.488391,293.430738 Z M417.561772,282.97122 L417.561772,294.218484 L417.769351,294.218484 L418.028825,293.69332 L422.699354,282.97122 L428.148306,282.97122 L423.010723,293.562029 L428.822938,315.137522 L423.373986,315.137522 L419.481878,301.133145 L419.326194,300.47669 L419.17051,300.47669 L418.859141,301.133145 L417.561772,303.758966 L417.561772,315.137522 L411.957136,315.137522 L411.957136,282.97122 L417.561772,282.97122 Z M431.417677,282.97122 L444.235686,282.97122 L444.235686,287.828988 L437.022312,287.828988 L437.022312,296.275377 L442.21179,296.275377 L442.21179,301.439491 L437.022312,301.439491 L437.022312,310.279753 L444.235686,310.279753 L444.235686,315.137522 L431.417677,315.137522 L431.417677,282.97122 Z M473.141076,318.988725 L468.885704,318.988725 L453.472956,278.988725 L457.572643,278.988725 L473.141076,318.988725 Z M492.705406,291.592664 C492.705406,290.542336 492.653512,289.360716 492.290248,288.441679 C491.926985,287.566406 491.356142,286.953714 490.473931,286.953714 C489.020877,286.997478 488.553824,288.266624 488.553824,290.148462 C488.553824,291.242554 489.124667,292.38041 489.954983,293.605793 C490.7853,294.831176 491.87509,296.100322 492.96488,297.456996 C494.26225,299.076252 495.559619,300.739272 496.54562,302.358528 C497.53162,303.977784 498.206253,305.640804 498.206253,307.391351 C498.206253,309.535771 497.791094,311.5489 496.597515,313.036865 C495.403935,314.52483 493.483828,315.487631 490.422036,315.487631 C486.841297,315.487631 484.8174,314.349775 483.675715,312.599228 C482.53403,310.848681 482.274557,308.529206 482.274557,306.122204 L487.775403,305.684567 C487.775403,307.041241 487.827297,308.397915 488.242456,309.40448 C488.605719,310.454808 489.228456,311.155027 490.422036,311.155027 C492.082669,311.155027 492.705406,309.667062 492.705406,307.610169 C492.705406,306.559841 492.082669,305.334458 491.252353,304.065311 C490.7853,303.45262 490.318247,302.796165 489.799299,302.13971 C488.709509,300.826799 487.515929,299.338834 486.270454,297.719578 C485.02498,296.100322 484.090874,294.437303 483.520031,292.730519 C483.208662,291.899009 483.052978,291.023736 483.052978,290.148462 C483.052978,288.397915 483.520031,286.516077 484.713611,285.071876 C485.907191,283.671438 487.723508,282.664874 490.370141,282.62111 C493.743302,282.577346 495.715303,283.758966 496.805094,285.465749 C497.894884,287.216296 498.206253,289.360716 498.206253,291.155027 L492.705406,291.592664 Z M511.179946,301.133145 L506.820785,301.133145 L506.820785,315.137522 L501.21615,315.137522 L501.21615,282.97122 L506.820785,282.97122 L506.820785,296.275377 L511.179946,296.275377 L511.179946,282.97122 L516.784582,282.97122 L516.784582,315.137522 L511.179946,315.137522 L511.179946,301.133145 Z M519.379321,315.137522 L525.139641,282.97122 L531.989751,282.97122 L537.750071,315.137522 L532.30112,315.137522 L531.263224,308.57297 L525.866168,308.57297 L524.828272,315.137522 L519.379321,315.137522 Z M528.876065,293.430738 L528.72038,292.599228 L528.409012,292.599228 L528.253327,293.430738 L526.644589,303.583911 L530.484803,303.583911 L528.876065,293.430738 Z M550.360502,315.137522 L547.454394,301.570782 L545.949446,301.570782 L545.949446,315.137522 L540.34481,315.137522 L540.34481,282.97122 L545.949446,282.97122 C552.643872,282.97122 555.498085,286.165968 555.498085,292.249119 C555.498085,295.443867 554.512084,298.33227 552.384398,299.557653 L555.965137,315.137522 L550.360502,315.137522 Z M545.949446,297.194414 C546.727867,297.194414 547.765763,297.106887 548.596079,296.494195 C549.426396,295.881504 550.101028,294.699885 550.101028,292.424174 C550.101028,290.148462 549.426396,288.923079 548.596079,288.310388 C547.765763,287.697697 546.727867,287.653933 545.949446,287.653933 L545.949446,297.194414 Z M559.078824,282.97122 L571.896834,282.97122 L571.896834,287.828988 L564.68346,287.828988 L564.68346,296.275377 L569.872937,296.275377 L569.872937,301.439491 L564.68346,301.439491 L564.68346,310.279753 L571.896834,310.279753 L571.896834,315.137522 L559.078824,315.137522 L559.078824,282.97122 Z" id="LEARN-\-MAKE-\-SHARE" fill="#000000"></path>
        </g>
    </g>
</svg>