<?xml version="1.0" encoding="UTF-8" standalone="no"?>
<svg width="321px" height="367px" viewBox="0 0 321 367" version="1.1" xmlns="http://www.w3.org/2000/svg" xmlns:xlink="http://www.w3.org/1999/xlink">
    <!-- Generator: Sketch 3.8.1 (29687) - http://www.bohemiancoding.com/sketch -->
    <title>vertical/text</title>
    <desc>Created with Sketch.</desc>
    <defs></defs>
    <g id="brand" stroke="none" stroke-width="1" fill="none" fill-rule="evenodd">
        <g id="vertical/text" fill="#000000">
            <path d="M115.1245,245.695 L121.9285,245.695 L121.9285,285.7 L130.9375,285.7 L130.9375,292 L115.1245,292 L115.1245,245.695 Z M133.7095,245.695 L140.5135,245.695 L140.5135,292 L133.7095,292 L133.7095,245.695 Z M145.5535,245.695 L161.1145,245.695 L161.1145,252.688 L152.3575,252.688 L152.3575,264.847 L158.6575,264.847 L158.6575,272.281 L152.3575,272.281 L152.3575,285.007 L161.1145,285.007 L161.1145,292 L145.5535,292 L145.5535,245.695 Z M175.7935,262.327 L175.7935,255.208 C175.7935,253.948 175.5415,253.066 174.9115,252.31 C174.5965,251.995 174.0925,251.806 173.5255,251.806 C172.3285,251.806 171.7615,252.688 171.5095,253.507 C171.3205,254.011 171.2575,254.578 171.2575,255.208 L171.2575,283.054 C171.2575,284.377 171.5725,285.259 172.2025,285.952 C172.5175,286.267 172.9585,286.456 173.5255,286.456 C174.7225,286.456 175.2895,285.7 175.5415,284.755 C175.7305,284.314 175.7935,283.747 175.7935,283.054 L175.7935,274.675 L173.0845,274.675 L173.0845,268.942 L182.5975,268.942 L182.5975,292 L178.5655,292 L177.7465,289.795 C176.4865,291.37 174.6595,292.504 172.4545,292.504 C170.2495,292.504 168.7375,291.937 167.6035,290.929 C166.4695,289.984 165.7135,288.787 165.2095,287.527 C164.6425,286.078 164.3905,284.377 164.4535,282.487 L164.4535,255.208 C164.5165,253.381 164.8945,251.68 165.5875,250.231 C166.1545,248.971 166.9735,247.711 168.2335,246.766 C169.4935,245.821 171.2575,245.191 173.5255,245.191 C175.7935,245.191 177.4945,245.821 178.7545,246.766 C180.0145,247.711 180.8965,248.971 181.4635,250.231 C182.1565,251.68 182.5345,253.381 182.5975,255.208 L182.5975,262.327 L175.7935,262.327 Z M187.5745,245.695 L203.1355,245.695 L203.1355,252.688 L194.3785,252.688 L194.3785,264.847 L200.6785,264.847 L200.6785,272.281 L194.3785,272.281 L194.3785,285.007 L203.1355,285.007 L203.1355,292 L187.5745,292 L187.5745,245.695 Z M17.3585,337.44 L10.3865,337.44 L10.3865,364 L1.4225,364 L1.4225,302.995 L10.3865,302.995 L10.3865,328.227 L17.3585,328.227 L17.3585,302.995 L26.3225,302.995 L26.3225,364 L17.3585,364 L17.3585,337.44 Z M30.4725,364 L39.6855,302.995 L50.6415,302.995 L59.8545,364 L51.1395,364 L49.4795,351.55 L40.8475,351.55 L39.1875,364 L30.4725,364 Z M45.6615,322.832 L45.4125,321.255 L44.9145,321.255 L44.6655,322.832 L42.0925,342.088 L48.2345,342.088 L45.6615,322.832 Z M87.3275,343.084 L87.3275,351.467 C87.2445,353.957 86.7465,356.198 85.8335,358.107 C85.0865,359.767 83.9245,361.344 82.2645,362.589 C80.6045,363.917 78.3635,364.664 75.3755,364.664 C72.3875,364.664 70.0635,363.917 68.4035,362.589 C66.7435,361.344 65.6645,359.767 64.9175,358.107 C64.0045,356.198 63.5065,353.957 63.4235,351.467 L63.4235,315.528 C63.5065,313.121 64.0045,310.88 64.9175,308.971 C65.6645,307.311 66.7435,305.651 68.4035,304.406 C70.0635,303.161 72.3875,302.331 75.3755,302.331 C78.3635,302.331 80.6045,303.161 82.2645,304.406 C83.9245,305.651 85.0865,307.311 85.8335,308.971 C86.7465,310.88 87.2445,313.121 87.3275,315.528 L87.3275,323.911 L78.9445,323.911 L78.9445,315.528 C78.9445,313.868 78.5295,312.706 77.6165,311.71 C77.2015,311.295 76.4545,311.046 75.5415,311.046 C73.9645,311.046 73.2175,312.208 72.8025,313.287 C72.5535,313.951 72.4705,314.698 72.3875,315.528 L72.3875,351.467 C72.4705,353.21 72.9685,354.372 73.7985,355.285 C74.2135,355.7 74.7945,355.949 75.5415,355.949 C77.4505,355.949 78.1975,354.953 78.6125,353.708 C78.8615,353.127 78.9445,352.38 78.9445,351.467 L78.9445,343.084 L87.3275,343.084 Z M101.6865,302.995 L101.6865,324.326 L102.0185,324.326 L102.4335,323.33 L109.9035,302.995 L118.6185,302.995 L110.4015,323.081 L119.6975,364 L110.9825,364 L104.7575,337.44 L104.5085,336.195 L104.2595,336.195 L103.7615,337.44 L101.6865,342.42 L101.6865,364 L92.7225,364 L92.7225,302.995 L101.6865,302.995 Z M123.8475,302.995 L144.3485,302.995 L144.3485,312.208 L132.8115,312.208 L132.8115,328.227 L141.1115,328.227 L141.1115,338.021 L132.8115,338.021 L132.8115,354.787 L144.3485,354.787 L144.3485,364 L123.8475,364 L123.8475,302.995 Z M165.3475,364 L160.6995,338.27 L158.2925,338.27 L158.2925,364 L149.3285,364 L149.3285,302.995 L158.2925,302.995 C168.9995,302.995 173.5645,309.054 173.5645,320.591 C173.5645,326.65 171.9875,332.128 168.5845,334.452 L174.3115,364 L165.3475,364 Z M158.2925,329.97 C159.5375,329.97 161.1975,329.804 162.5255,328.642 C163.8535,327.48 164.9325,325.239 164.9325,320.923 C164.9325,316.607 163.8535,314.283 162.5255,313.121 C161.1975,311.959 159.5375,311.876 158.2925,311.876 L158.2925,329.97 Z M194.1485,319.346 C194.1485,317.354 194.0655,315.113 193.4845,313.37 C192.9035,311.71 191.9905,310.548 190.5795,310.548 C188.2555,310.631 187.5085,313.038 187.5085,316.607 C187.5085,318.682 188.4215,320.84 189.7495,323.164 C191.0775,325.488 192.8205,327.895 194.5635,330.468 C196.6385,333.539 198.7135,336.693 200.2905,339.764 C201.8675,342.835 202.9465,345.989 202.9465,349.309 C202.9465,353.376 202.2825,357.194 200.3735,360.016 C198.4645,362.838 195.3935,364.664 190.4965,364.664 C184.7695,364.664 181.5325,362.506 179.7065,359.186 C177.8805,355.866 177.4655,351.467 177.4655,346.902 L186.2635,346.072 C186.2635,348.645 186.3465,351.218 187.0105,353.127 C187.5915,355.119 188.5875,356.447 190.4965,356.447 C193.1525,356.447 194.1485,353.625 194.1485,349.724 C194.1485,347.732 193.1525,345.408 191.8245,343.001 C191.0775,341.839 190.3305,340.594 189.5005,339.349 C187.7575,336.859 185.8485,334.037 183.8565,330.966 C181.8645,327.895 180.3705,324.741 179.4575,321.504 C178.9595,319.927 178.7105,318.267 178.7105,316.607 C178.7105,313.287 179.4575,309.718 181.3665,306.979 C183.2755,304.323 186.1805,302.414 190.4135,302.331 C195.8085,302.248 198.9625,304.489 200.7055,307.726 C202.4485,311.046 202.9465,315.113 202.9465,318.516 L194.1485,319.346 Z M207.7605,302.995 L216.7245,302.995 C220.6255,302.995 224.5265,303.991 227.5145,306.813 C230.5025,309.635 232.4945,314.283 232.4945,321.255 C232.4945,328.227 230.5025,332.792 227.5145,335.614 C224.5265,338.436 220.6255,339.598 216.7245,339.598 L216.7245,364 L207.7605,364 L207.7605,302.995 Z M216.7245,330.468 C219.4635,330.468 221.2065,329.97 222.2025,328.559 C223.1985,327.231 223.4475,324.99 223.4475,321.587 C223.4475,318.184 223.1985,315.777 222.2025,314.283 C221.2065,312.789 219.4635,312.125 216.7245,312.125 L216.7245,330.468 Z M234.4865,364 L243.6995,302.995 L254.6555,302.995 L263.8685,364 L255.1535,364 L253.4935,351.55 L244.8615,351.55 L243.2015,364 L234.4865,364 Z M249.6755,322.832 L249.4265,321.255 L248.9285,321.255 L248.6795,322.832 L246.1065,342.088 L252.2485,342.088 L249.6755,322.832 Z M291.3415,343.084 L291.3415,351.467 C291.2585,353.957 290.7605,356.198 289.8475,358.107 C289.1005,359.767 287.9385,361.344 286.2785,362.589 C284.6185,363.917 282.3775,364.664 279.3895,364.664 C276.4015,364.664 274.0775,363.917 272.4175,362.589 C270.7575,361.344 269.6785,359.767 268.9315,358.107 C268.0185,356.198 267.5205,353.957 267.4375,351.467 L267.4375,315.528 C267.5205,313.121 268.0185,310.88 268.9315,308.971 C269.6785,307.311 270.7575,305.651 272.4175,304.406 C274.0775,303.161 276.4015,302.331 279.3895,302.331 C282.3775,302.331 284.6185,303.161 286.2785,304.406 C287.9385,305.651 289.1005,307.311 289.8475,308.971 C290.7605,310.88 291.2585,313.121 291.3415,315.528 L291.3415,323.911 L282.9585,323.911 L282.9585,315.528 C282.9585,313.868 282.5435,312.706 281.6305,311.71 C281.2155,311.295 280.4685,311.046 279.5555,311.046 C277.9785,311.046 277.2315,312.208 276.8165,313.287 C276.5675,313.951 276.4845,314.698 276.4015,315.528 L276.4015,351.467 C276.4845,353.21 276.9825,354.372 277.8125,355.285 C278.2275,355.7 278.8085,355.949 279.5555,355.949 C281.4645,355.949 282.2115,354.953 282.6265,353.708 C282.8755,353.127 282.9585,352.38 282.9585,351.467 L282.9585,343.084 L291.3415,343.084 Z M296.7365,302.995 L317.2375,302.995 L317.2375,312.208 L305.7005,312.208 L305.7005,328.227 L314.0005,328.227 L314.0005,338.021 L305.7005,338.021 L305.7005,354.787 L317.2375,354.787 L317.2375,364 L296.7365,364 L296.7365,302.995 Z" id="LIEGE"></path>
            <g id="logo" transform="translate(53.000000, 2.000000)">
                <g id="wrench">
                    <g id="Layer_1">
                        <path d="M105.5,84.0369122 C93.681497,72.8843381 84.5611183,64.2627723 83.5505929,63.264353 C80.4983592,60.2109892 81.5284881,57.3484607 82.4441582,55.1729389 C90.1128953,37.1580925 81.4521823,20.9370973 73.2111513,12.2350105 C64.70305,3.18942023 53.7150087,0.288724618 48.5643644,0.0215552857 C43.451873,-0.245614047 36.5461943,1.96807471 31.7007733,6.81528974 L53.2571737,28.4560057 L49.4800345,49.4860489 L28.457775,53.3027536 L6.90137466,31.6620377 C1.44550696,37.1199255 -0.271374486,43.6464906 0.0338488823,48.5700397 C0.33907225,53.5317559 2.17041246,63.226186 12.2046307,73.2641195 C22.2388489,83.302053 41.5823798,89.4087806 55.1648197,82.3860438 C57.1106187,81.3937006 60.0102407,80.3250233 63.253239,83.4928882 C64.4100156,84.6257309 72.7057226,93.3977637 83.4657193,104.817466 C63.9882195,123.178937 45.4206269,140.667125 45.4206269,140.667125 C38.0189603,147.041022 38.5531012,158.83464 45.382474,165.704709 C52.3263056,172.53661 64.0392524,172.956448 70.4107902,165.590207 C70.4107902,165.590207 87.4207483,147.464195 105.5,128.233407 C123.579252,147.464195 140.58921,165.590207 140.58921,165.590207 C146.960748,172.956448 158.673694,172.53661 165.617526,165.704709 C172.446899,158.83464 172.98104,147.041022 165.579373,140.667125 C165.579373,140.667125 147.011781,123.178937 127.534281,104.817466 C138.294277,93.3977637 146.589984,84.6257309 147.746761,83.4928882 C150.989759,80.3250233 153.889381,81.3937006 155.83518,82.3860438 C169.41762,89.4087806 188.761151,83.302053 198.795369,73.2641195 C208.829588,63.226186 210.660928,53.5317559 210.966151,48.5700397 C211.271374,43.6464906 209.554493,37.1199255 204.098625,31.6620377 L182.542225,53.3027536 L161.519966,49.4860489 L157.742826,28.4560057 L179.299227,6.81528974 C174.453806,1.96807471 167.548127,-0.245614047 162.435636,0.0215552857 C157.284991,0.288724618 146.29695,3.18942023 137.788849,12.2350105 C129.547818,20.9370973 120.887105,37.1580925 128.555842,55.1729389 C129.471512,57.3484607 130.501641,60.2109892 127.449407,63.264353 C126.438882,64.2627723 117.318503,72.8843381 105.5,84.0369122 Z M62.7039002,156.964455 C60.3002661,159.330812 56.4086682,159.330812 54.0431871,156.964455 C51.677706,154.559931 51.677706,150.666892 54.0431871,148.300535 C56.4468211,145.934178 60.3384191,145.934178 62.7039002,148.300535 C65.0693813,150.705059 65.0693813,154.598098 62.7039002,156.964455 Z M148.2961,156.964455 C150.699734,159.330812 154.591332,159.330812 156.956813,156.964455 C159.322294,154.559931 159.322294,150.666892 156.956813,148.300535 C154.553179,145.934178 150.661581,145.934178 148.2961,148.300535 C145.930619,150.705059 145.930619,154.598098 148.2961,156.964455 Z" id="Shape"></path>
                    </g>
                </g>
                <polygon id="Path-128" points="82.4379321 205 83.7551827 205 84.2753743 203.789814 88 195 88 194.5 93.3652851 218.419472 95.0188128 226.127981 97.2397988 218.563426 106.047928 188.563426 102.169704 188.401783 108.321864 218.401783 110.105133 227.097603 112.223317 218.477241 119.594876 188.477241 115.715751 188.49842 123.435622 218.49842 124.874212 224.088891 127.202609 218.806707 133.814638 203.806707 131.984549 205 170 205 170 201 131.984549 201 130.680466 201 130.15446 202.193293 123.542432 217.193293 127.309419 217.50158 119.589549 187.50158 117.607883 179.800678 115.710424 187.522759 108.338865 217.522759 112.240318 217.598217 106.088158 187.598217 104.473789 179.726009 102.209934 187.436574 93.4018039 217.436574 97.2763175 217.580528 90.8411132 187.580528 89.525429 181.446997 87.0481549 187.210186 80.6004899 202.210186 82.4379321 201 43.5 201 43.5 205"></polygon>
            </g>
        </g>
    </g>
</svg>