<?xml version="1.0" encoding="UTF-8" standalone="no"?>
<svg width="396px" height="453px" viewBox="0 0 396 453" version="1.1" xmlns="http://www.w3.org/2000/svg" xmlns:xlink="http://www.w3.org/1999/xlink">
    <!-- Generator: Sketch 40.2 (33826) - http://www.bohemiancoding.com/sketch -->
    <title>vertical/text</title>
    <desc>Created with Sketch.</desc>
    <defs></defs>
    <g id="brand" stroke="none" stroke-width="1" fill="none" fill-rule="evenodd">
        <g id="vertical/text" fill="#000000">
            <path d="M152.1245,288.695 L158.9285,288.695 L158.9285,328.7 L167.9375,328.7 L167.9375,335 L152.1245,335 L152.1245,288.695 Z M170.7095,288.695 L177.5135,288.695 L177.5135,335 L170.7095,335 L170.7095,288.695 Z M182.5535,288.695 L198.1145,288.695 L198.1145,295.688 L189.3575,295.688 L189.3575,307.847 L195.6575,307.847 L195.6575,315.281 L189.3575,315.281 L189.3575,328.007 L198.1145,328.007 L198.1145,335 L182.5535,335 L182.5535,288.695 Z M212.7935,305.327 L212.7935,298.208 C212.7935,296.948 212.5415,296.066 211.9115,295.31 C211.5965,294.995 211.0925,294.806 210.5255,294.806 C209.3285,294.806 208.7615,295.688 208.5095,296.507 C208.3205,297.011 208.2575,297.578 208.2575,298.208 L208.2575,326.054 C208.2575,327.377 208.5725,328.259 209.2025,328.952 C209.5175,329.267 209.9585,329.456 210.5255,329.456 C211.7225,329.456 212.2895,328.7 212.5415,327.755 C212.7305,327.314 212.7935,326.747 212.7935,326.054 L212.7935,317.675 L210.0845,317.675 L210.0845,311.942 L219.5975,311.942 L219.5975,335 L215.5655,335 L214.7465,332.795 C213.4865,334.37 211.6595,335.504 209.4545,335.504 C207.2495,335.504 205.7375,334.937 204.6035,333.929 C203.4695,332.984 202.7135,331.787 202.2095,330.527 C201.6425,329.078 201.3905,327.377 201.4535,325.487 L201.4535,298.208 C201.5165,296.381 201.8945,294.68 202.5875,293.231 C203.1545,291.971 203.9735,290.711 205.2335,289.766 C206.4935,288.821 208.2575,288.191 210.5255,288.191 C212.7935,288.191 214.4945,288.821 215.7545,289.766 C217.0145,290.711 217.8965,291.971 218.4635,293.231 C219.1565,294.68 219.5345,296.381 219.5975,298.208 L219.5975,305.327 L212.7935,305.327 Z M224.5745,288.695 L240.1355,288.695 L240.1355,295.688 L231.3785,295.688 L231.3785,307.847 L237.6785,307.847 L237.6785,315.281 L231.3785,315.281 L231.3785,328.007 L240.1355,328.007 L240.1355,335 L224.5745,335 L224.5745,288.695 Z M54.3585,380.44 L47.3865,380.44 L47.3865,407 L38.4225,407 L38.4225,345.995 L47.3865,345.995 L47.3865,371.227 L54.3585,371.227 L54.3585,345.995 L63.3225,345.995 L63.3225,407 L54.3585,407 L54.3585,380.44 Z M67.4725,407 L76.6855,345.995 L87.6415,345.995 L96.8545,407 L88.1395,407 L86.4795,394.55 L77.8475,394.55 L76.1875,407 L67.4725,407 Z M82.6615,365.832 L82.4125,364.255 L81.9145,364.255 L81.6655,365.832 L79.0925,385.088 L85.2345,385.088 L82.6615,365.832 Z M124.3275,386.084 L124.3275,394.467 C124.2445,396.957 123.7465,399.198 122.8335,401.107 C122.0865,402.767 120.9245,404.344 119.2645,405.589 C117.6045,406.917 115.3635,407.664 112.3755,407.664 C109.3875,407.664 107.0635,406.917 105.4035,405.589 C103.7435,404.344 102.6645,402.767 101.9175,401.107 C101.0045,399.198 100.5065,396.957 100.4235,394.467 L100.4235,358.528 C100.5065,356.121 101.0045,353.88 101.9175,351.971 C102.6645,350.311 103.7435,348.651 105.4035,347.406 C107.0635,346.161 109.3875,345.331 112.3755,345.331 C115.3635,345.331 117.6045,346.161 119.2645,347.406 C120.9245,348.651 122.0865,350.311 122.8335,351.971 C123.7465,353.88 124.2445,356.121 124.3275,358.528 L124.3275,366.911 L115.9445,366.911 L115.9445,358.528 C115.9445,356.868 115.5295,355.706 114.6165,354.71 C114.2015,354.295 113.4545,354.046 112.5415,354.046 C110.9645,354.046 110.2175,355.208 109.8025,356.287 C109.5535,356.951 109.4705,357.698 109.3875,358.528 L109.3875,394.467 C109.4705,396.21 109.9685,397.372 110.7985,398.285 C111.2135,398.7 111.7945,398.949 112.5415,398.949 C114.4505,398.949 115.1975,397.953 115.6125,396.708 C115.8615,396.127 115.9445,395.38 115.9445,394.467 L115.9445,386.084 L124.3275,386.084 Z M138.6865,345.995 L138.6865,367.326 L139.0185,367.326 L139.4335,366.33 L146.9035,345.995 L155.6185,345.995 L147.4015,366.081 L156.6975,407 L147.9825,407 L141.7575,380.44 L141.5085,379.195 L141.2595,379.195 L140.7615,380.44 L138.6865,385.42 L138.6865,407 L129.7225,407 L129.7225,345.995 L138.6865,345.995 Z M160.8475,345.995 L181.3485,345.995 L181.3485,355.208 L169.8115,355.208 L169.8115,371.227 L178.1115,371.227 L178.1115,381.021 L169.8115,381.021 L169.8115,397.787 L181.3485,397.787 L181.3485,407 L160.8475,407 L160.8475,345.995 Z M202.3475,407 L197.6995,381.27 L195.2925,381.27 L195.2925,407 L186.3285,407 L186.3285,345.995 L195.2925,345.995 C205.9995,345.995 210.5645,352.054 210.5645,363.591 C210.5645,369.65 208.9875,375.128 205.5845,377.452 L211.3115,407 L202.3475,407 Z M195.2925,372.97 C196.5375,372.97 198.1975,372.804 199.5255,371.642 C200.8535,370.48 201.9325,368.239 201.9325,363.923 C201.9325,359.607 200.8535,357.283 199.5255,356.121 C198.1975,354.959 196.5375,354.876 195.2925,354.876 L195.2925,372.97 Z M231.1485,362.346 C231.1485,360.354 231.0655,358.113 230.4845,356.37 C229.9035,354.71 228.9905,353.548 227.5795,353.548 C225.2555,353.631 224.5085,356.038 224.5085,359.607 C224.5085,361.682 225.4215,363.84 226.7495,366.164 C228.0775,368.488 229.8205,370.895 231.5635,373.468 C233.6385,376.539 235.7135,379.693 237.2905,382.764 C238.8675,385.835 239.9465,388.989 239.9465,392.309 C239.9465,396.376 239.2825,400.194 237.3735,403.016 C235.4645,405.838 232.3935,407.664 227.4965,407.664 C221.7695,407.664 218.5325,405.506 216.7065,402.186 C214.8805,398.866 214.4655,394.467 214.4655,389.902 L223.2635,389.072 C223.2635,391.645 223.3465,394.218 224.0105,396.127 C224.5915,398.119 225.5875,399.447 227.4965,399.447 C230.1525,399.447 231.1485,396.625 231.1485,392.724 C231.1485,390.732 230.1525,388.408 228.8245,386.001 C228.0775,384.839 227.3305,383.594 226.5005,382.349 C224.7575,379.859 222.8485,377.037 220.8565,373.966 C218.8645,370.895 217.3705,367.741 216.4575,364.504 C215.9595,362.927 215.7105,361.267 215.7105,359.607 C215.7105,356.287 216.4575,352.718 218.3665,349.979 C220.2755,347.323 223.1805,345.414 227.4135,345.331 C232.8085,345.248 235.9625,347.489 237.7055,350.726 C239.4485,354.046 239.9465,358.113 239.9465,361.516 L231.1485,362.346 Z M244.7605,345.995 L253.7245,345.995 C257.6255,345.995 261.5265,346.991 264.5145,349.813 C267.5025,352.635 269.4945,357.283 269.4945,364.255 C269.4945,371.227 267.5025,375.792 264.5145,378.614 C261.5265,381.436 257.6255,382.598 253.7245,382.598 L253.7245,407 L244.7605,407 L244.7605,345.995 Z M253.7245,373.468 C256.4635,373.468 258.2065,372.97 259.2025,371.559 C260.1985,370.231 260.4475,367.99 260.4475,364.587 C260.4475,361.184 260.1985,358.777 259.2025,357.283 C258.2065,355.789 256.4635,355.125 253.7245,355.125 L253.7245,373.468 Z M271.4865,407 L280.6995,345.995 L291.6555,345.995 L300.8685,407 L292.1535,407 L290.4935,394.55 L281.8615,394.55 L280.2015,407 L271.4865,407 Z M286.6755,365.832 L286.4265,364.255 L285.9285,364.255 L285.6795,365.832 L283.1065,385.088 L289.2485,385.088 L286.6755,365.832 Z M328.3415,386.084 L328.3415,394.467 C328.2585,396.957 327.7605,399.198 326.8475,401.107 C326.1005,402.767 324.9385,404.344 323.2785,405.589 C321.6185,406.917 319.3775,407.664 316.3895,407.664 C313.4015,407.664 311.0775,406.917 309.4175,405.589 C307.7575,404.344 306.6785,402.767 305.9315,401.107 C305.0185,399.198 304.5205,396.957 304.4375,394.467 L304.4375,358.528 C304.5205,356.121 305.0185,353.88 305.9315,351.971 C306.6785,350.311 307.7575,348.651 309.4175,347.406 C311.0775,346.161 313.4015,345.331 316.3895,345.331 C319.3775,345.331 321.6185,346.161 323.2785,347.406 C324.9385,348.651 326.1005,350.311 326.8475,351.971 C327.7605,353.88 328.2585,356.121 328.3415,358.528 L328.3415,366.911 L319.9585,366.911 L319.9585,358.528 C319.9585,356.868 319.5435,355.706 318.6305,354.71 C318.2155,354.295 317.4685,354.046 316.5555,354.046 C314.9785,354.046 314.2315,355.208 313.8165,356.287 C313.5675,356.951 313.4845,357.698 313.4015,358.528 L313.4015,394.467 C313.4845,396.21 313.9825,397.372 314.8125,398.285 C315.2275,398.7 315.8085,398.949 316.5555,398.949 C318.4645,398.949 319.2115,397.953 319.6265,396.708 C319.8755,396.127 319.9585,395.38 319.9585,394.467 L319.9585,386.084 L328.3415,386.084 Z M333.7365,345.995 L354.2375,345.995 L354.2375,355.208 L342.7005,355.208 L342.7005,371.227 L351.0005,371.227 L351.0005,381.021 L342.7005,381.021 L342.7005,397.787 L354.2375,397.787 L354.2375,407 L333.7365,407 L333.7365,345.995 Z" id="LIEGE"></path>
            <g id="logo" transform="translate(90.000000, 45.000000)">
                <g id="wrench">
                    <g id="Layer_1">
                        <path d="M105.5,84.0369122 C93.681497,72.8843381 84.5611183,64.2627723 83.5505929,63.264353 C80.4983592,60.2109892 81.5284881,57.3484607 82.4441582,55.1729389 C90.1128953,37.1580925 81.4521823,20.9370973 73.2111513,12.2350105 C64.70305,3.18942023 53.7150087,0.288724618 48.5643644,0.0215552857 C43.451873,-0.245614047 36.5461943,1.96807471 31.7007733,6.81528974 L53.2571737,28.4560057 L49.4800345,49.4860489 L28.457775,53.3027536 L6.90137466,31.6620377 C1.44550696,37.1199255 -0.271374486,43.6464906 0.0338488823,48.5700397 C0.33907225,53.5317559 2.17041246,63.226186 12.2046307,73.2641195 C22.2388489,83.302053 41.5823798,89.4087806 55.1648197,82.3860438 C57.1106187,81.3937006 60.0102407,80.3250233 63.253239,83.4928882 C64.4100156,84.6257309 72.7057226,93.3977637 83.4657193,104.817466 C63.9882195,123.178937 45.4206269,140.667125 45.4206269,140.667125 C38.0189603,147.041022 38.5531012,158.83464 45.382474,165.704709 C52.3263056,172.53661 64.0392524,172.956448 70.4107902,165.590207 C70.4107902,165.590207 87.4207483,147.464195 105.5,128.233407 C123.579252,147.464195 140.58921,165.590207 140.58921,165.590207 C146.960748,172.956448 158.673694,172.53661 165.617526,165.704709 C172.446899,158.83464 172.98104,147.041022 165.579373,140.667125 C165.579373,140.667125 147.011781,123.178937 127.534281,104.817466 C138.294277,93.3977637 146.589984,84.6257309 147.746761,83.4928882 C150.989759,80.3250233 153.889381,81.3937006 155.83518,82.3860438 C169.41762,89.4087806 188.761151,83.302053 198.795369,73.2641195 C208.829588,63.226186 210.660928,53.5317559 210.966151,48.5700397 C211.271374,43.6464906 209.554493,37.1199255 204.098625,31.6620377 L182.542225,53.3027536 L161.519966,49.4860489 L157.742826,28.4560057 L179.299227,6.81528974 C174.453806,1.96807471 167.548127,-0.245614047 162.435636,0.0215552857 C157.284991,0.288724618 146.29695,3.18942023 137.788849,12.2350105 C129.547818,20.9370973 120.887105,37.1580925 128.555842,55.1729389 C129.471512,57.3484607 130.501641,60.2109892 127.449407,63.264353 C126.438882,64.2627723 117.318503,72.8843381 105.5,84.0369122 Z M62.7039002,156.964455 C60.3002661,159.330812 56.4086682,159.330812 54.0431871,156.964455 C51.677706,154.559931 51.677706,150.666892 54.0431871,148.300535 C56.4468211,145.934178 60.3384191,145.934178 62.7039002,148.300535 C65.0693813,150.705059 65.0693813,154.598098 62.7039002,156.964455 Z M148.2961,156.964455 C150.699734,159.330812 154.591332,159.330812 156.956813,156.964455 C159.322294,154.559931 159.322294,150.666892 156.956813,148.300535 C154.553179,145.934178 150.661581,145.934178 148.2961,148.300535 C145.930619,150.705059 145.930619,154.598098 148.2961,156.964455 Z" id="Shape"></path>
                    </g>
                </g>
            </g>
            <polygon id="Path-128" points="174.255183 250.273991 178.5 239.273991 185.518813 271.401971 194 241.773991 200.5 271.40197 208.10788 241.773991 215.5 271.40197 224 250.273991 260.5 250.273991 260.5 246.273991 221.180466 246.273991 216.5 257.273991 208.107883 225.074668 201 254.773991 194.973789 225 186.5 255.273991 180 225 171.100491 246.273991 134 246.273991 134 250.273991"></polygon>
        </g>
    </g>
</svg>