<?xml version="1.0" encoding="UTF-8" standalone="no"?>
<svg width="395px" height="531px" viewBox="0 0 395 531" version="1.1" xmlns="http://www.w3.org/2000/svg" xmlns:xlink="http://www.w3.org/1999/xlink">
    <!-- Generator: Sketch 40.2 (33826) - http://www.bohemiancoding.com/sketch -->
    <title>vertical/text-baseline</title>
    <desc>Created with Sketch.</desc>
    <defs></defs>
    <g id="brand" stroke="none" stroke-width="1" fill="none" fill-rule="evenodd">
        <g id="vertical/text-baseline" fill="#000000">
            <path d="M152.1245,295.695 L158.9285,295.695 L158.9285,335.7 L167.9375,335.7 L167.9375,342 L152.1245,342 L152.1245,295.695 Z M170.7095,295.695 L177.5135,295.695 L177.5135,342 L170.7095,342 L170.7095,295.695 Z M182.5535,295.695 L198.1145,295.695 L198.1145,302.688 L189.3575,302.688 L189.3575,314.847 L195.6575,314.847 L195.6575,322.281 L189.3575,322.281 L189.3575,335.007 L198.1145,335.007 L198.1145,342 L182.5535,342 L182.5535,295.695 Z M212.7935,312.327 L212.7935,305.208 C212.7935,303.948 212.5415,303.066 211.9115,302.31 C211.5965,301.995 211.0925,301.806 210.5255,301.806 C209.3285,301.806 208.7615,302.688 208.5095,303.507 C208.3205,304.011 208.2575,304.578 208.2575,305.208 L208.2575,333.054 C208.2575,334.377 208.5725,335.259 209.2025,335.952 C209.5175,336.267 209.9585,336.456 210.5255,336.456 C211.7225,336.456 212.2895,335.7 212.5415,334.755 C212.7305,334.314 212.7935,333.747 212.7935,333.054 L212.7935,324.675 L210.0845,324.675 L210.0845,318.942 L219.5975,318.942 L219.5975,342 L215.5655,342 L214.7465,339.795 C213.4865,341.37 211.6595,342.504 209.4545,342.504 C207.2495,342.504 205.7375,341.937 204.6035,340.929 C203.4695,339.984 202.7135,338.787 202.2095,337.527 C201.6425,336.078 201.3905,334.377 201.4535,332.487 L201.4535,305.208 C201.5165,303.381 201.8945,301.68 202.5875,300.231 C203.1545,298.971 203.9735,297.711 205.2335,296.766 C206.4935,295.821 208.2575,295.191 210.5255,295.191 C212.7935,295.191 214.4945,295.821 215.7545,296.766 C217.0145,297.711 217.8965,298.971 218.4635,300.231 C219.1565,301.68 219.5345,303.381 219.5975,305.208 L219.5975,312.327 L212.7935,312.327 Z M224.5745,295.695 L240.1355,295.695 L240.1355,302.688 L231.3785,302.688 L231.3785,314.847 L237.6785,314.847 L237.6785,322.281 L231.3785,322.281 L231.3785,335.007 L240.1355,335.007 L240.1355,342 L224.5745,342 L224.5745,295.695 Z M54.3585,387.44 L47.3865,387.44 L47.3865,414 L38.4225,414 L38.4225,352.995 L47.3865,352.995 L47.3865,378.227 L54.3585,378.227 L54.3585,352.995 L63.3225,352.995 L63.3225,414 L54.3585,414 L54.3585,387.44 Z M67.4725,414 L76.6855,352.995 L87.6415,352.995 L96.8545,414 L88.1395,414 L86.4795,401.55 L77.8475,401.55 L76.1875,414 L67.4725,414 Z M82.6615,372.832 L82.4125,371.255 L81.9145,371.255 L81.6655,372.832 L79.0925,392.088 L85.2345,392.088 L82.6615,372.832 Z M124.3275,393.084 L124.3275,401.467 C124.2445,403.957 123.7465,406.198 122.8335,408.107 C122.0865,409.767 120.9245,411.344 119.2645,412.589 C117.6045,413.917 115.3635,414.664 112.3755,414.664 C109.3875,414.664 107.0635,413.917 105.4035,412.589 C103.7435,411.344 102.6645,409.767 101.9175,408.107 C101.0045,406.198 100.5065,403.957 100.4235,401.467 L100.4235,365.528 C100.5065,363.121 101.0045,360.88 101.9175,358.971 C102.6645,357.311 103.7435,355.651 105.4035,354.406 C107.0635,353.161 109.3875,352.331 112.3755,352.331 C115.3635,352.331 117.6045,353.161 119.2645,354.406 C120.9245,355.651 122.0865,357.311 122.8335,358.971 C123.7465,360.88 124.2445,363.121 124.3275,365.528 L124.3275,373.911 L115.9445,373.911 L115.9445,365.528 C115.9445,363.868 115.5295,362.706 114.6165,361.71 C114.2015,361.295 113.4545,361.046 112.5415,361.046 C110.9645,361.046 110.2175,362.208 109.8025,363.287 C109.5535,363.951 109.4705,364.698 109.3875,365.528 L109.3875,401.467 C109.4705,403.21 109.9685,404.372 110.7985,405.285 C111.2135,405.7 111.7945,405.949 112.5415,405.949 C114.4505,405.949 115.1975,404.953 115.6125,403.708 C115.8615,403.127 115.9445,402.38 115.9445,401.467 L115.9445,393.084 L124.3275,393.084 Z M138.6865,352.995 L138.6865,374.326 L139.0185,374.326 L139.4335,373.33 L146.9035,352.995 L155.6185,352.995 L147.4015,373.081 L156.6975,414 L147.9825,414 L141.7575,387.44 L141.5085,386.195 L141.2595,386.195 L140.7615,387.44 L138.6865,392.42 L138.6865,414 L129.7225,414 L129.7225,352.995 L138.6865,352.995 Z M160.8475,352.995 L181.3485,352.995 L181.3485,362.208 L169.8115,362.208 L169.8115,378.227 L178.1115,378.227 L178.1115,388.021 L169.8115,388.021 L169.8115,404.787 L181.3485,404.787 L181.3485,414 L160.8475,414 L160.8475,352.995 Z M202.3475,414 L197.6995,388.27 L195.2925,388.27 L195.2925,414 L186.3285,414 L186.3285,352.995 L195.2925,352.995 C205.9995,352.995 210.5645,359.054 210.5645,370.591 C210.5645,376.65 208.9875,382.128 205.5845,384.452 L211.3115,414 L202.3475,414 Z M195.2925,379.97 C196.5375,379.97 198.1975,379.804 199.5255,378.642 C200.8535,377.48 201.9325,375.239 201.9325,370.923 C201.9325,366.607 200.8535,364.283 199.5255,363.121 C198.1975,361.959 196.5375,361.876 195.2925,361.876 L195.2925,379.97 Z M231.1485,369.346 C231.1485,367.354 231.0655,365.113 230.4845,363.37 C229.9035,361.71 228.9905,360.548 227.5795,360.548 C225.2555,360.631 224.5085,363.038 224.5085,366.607 C224.5085,368.682 225.4215,370.84 226.7495,373.164 C228.0775,375.488 229.8205,377.895 231.5635,380.468 C233.6385,383.539 235.7135,386.693 237.2905,389.764 C238.8675,392.835 239.9465,395.989 239.9465,399.309 C239.9465,403.376 239.2825,407.194 237.3735,410.016 C235.4645,412.838 232.3935,414.664 227.4965,414.664 C221.7695,414.664 218.5325,412.506 216.7065,409.186 C214.8805,405.866 214.4655,401.467 214.4655,396.902 L223.2635,396.072 C223.2635,398.645 223.3465,401.218 224.0105,403.127 C224.5915,405.119 225.5875,406.447 227.4965,406.447 C230.1525,406.447 231.1485,403.625 231.1485,399.724 C231.1485,397.732 230.1525,395.408 228.8245,393.001 C228.0775,391.839 227.3305,390.594 226.5005,389.349 C224.7575,386.859 222.8485,384.037 220.8565,380.966 C218.8645,377.895 217.3705,374.741 216.4575,371.504 C215.9595,369.927 215.7105,368.267 215.7105,366.607 C215.7105,363.287 216.4575,359.718 218.3665,356.979 C220.2755,354.323 223.1805,352.414 227.4135,352.331 C232.8085,352.248 235.9625,354.489 237.7055,357.726 C239.4485,361.046 239.9465,365.113 239.9465,368.516 L231.1485,369.346 Z M244.7605,352.995 L253.7245,352.995 C257.6255,352.995 261.5265,353.991 264.5145,356.813 C267.5025,359.635 269.4945,364.283 269.4945,371.255 C269.4945,378.227 267.5025,382.792 264.5145,385.614 C261.5265,388.436 257.6255,389.598 253.7245,389.598 L253.7245,414 L244.7605,414 L244.7605,352.995 Z M253.7245,380.468 C256.4635,380.468 258.2065,379.97 259.2025,378.559 C260.1985,377.231 260.4475,374.99 260.4475,371.587 C260.4475,368.184 260.1985,365.777 259.2025,364.283 C258.2065,362.789 256.4635,362.125 253.7245,362.125 L253.7245,380.468 Z M271.4865,414 L280.6995,352.995 L291.6555,352.995 L300.8685,414 L292.1535,414 L290.4935,401.55 L281.8615,401.55 L280.2015,414 L271.4865,414 Z M286.6755,372.832 L286.4265,371.255 L285.9285,371.255 L285.6795,372.832 L283.1065,392.088 L289.2485,392.088 L286.6755,372.832 Z M328.3415,393.084 L328.3415,401.467 C328.2585,403.957 327.7605,406.198 326.8475,408.107 C326.1005,409.767 324.9385,411.344 323.2785,412.589 C321.6185,413.917 319.3775,414.664 316.3895,414.664 C313.4015,414.664 311.0775,413.917 309.4175,412.589 C307.7575,411.344 306.6785,409.767 305.9315,408.107 C305.0185,406.198 304.5205,403.957 304.4375,401.467 L304.4375,365.528 C304.5205,363.121 305.0185,360.88 305.9315,358.971 C306.6785,357.311 307.7575,355.651 309.4175,354.406 C311.0775,353.161 313.4015,352.331 316.3895,352.331 C319.3775,352.331 321.6185,353.161 323.2785,354.406 C324.9385,355.651 326.1005,357.311 326.8475,358.971 C327.7605,360.88 328.2585,363.121 328.3415,365.528 L328.3415,373.911 L319.9585,373.911 L319.9585,365.528 C319.9585,363.868 319.5435,362.706 318.6305,361.71 C318.2155,361.295 317.4685,361.046 316.5555,361.046 C314.9785,361.046 314.2315,362.208 313.8165,363.287 C313.5675,363.951 313.4845,364.698 313.4015,365.528 L313.4015,401.467 C313.4845,403.21 313.9825,404.372 314.8125,405.285 C315.2275,405.7 315.8085,405.949 316.5555,405.949 C318.4645,405.949 319.2115,404.953 319.6265,403.708 C319.8755,403.127 319.9585,402.38 319.9585,401.467 L319.9585,393.084 L328.3415,393.084 Z M333.7365,352.995 L354.2375,352.995 L354.2375,362.208 L342.7005,362.208 L342.7005,378.227 L351.0005,378.227 L351.0005,388.021 L342.7005,388.021 L342.7005,404.787 L354.2375,404.787 L354.2375,414 L333.7365,414 L333.7365,352.995 Z" id="LIEGE"></path>
            <path d="M37,447.867812 L42.4432407,447.867812 L42.4432407,474.857488 L49.6504946,474.857488 L49.6504946,479.10783 L37,479.10783 L37,447.867812 Z M51.8681112,447.867812 L64.3170042,447.867812 L64.3170042,452.585692 L57.3113519,452.585692 L57.3113519,460.788853 L62.3513895,460.788853 L62.3513895,465.804258 L57.3113519,465.804258 L57.3113519,474.38995 L64.3170042,474.38995 L64.3170042,479.10783 L51.8681112,479.10783 L51.8681112,447.867812 Z M65.9298163,479.10783 L71.5242581,447.867812 L78.1771079,447.867812 L83.7715497,479.10783 L78.4795101,479.10783 L77.4715026,472.732316 L72.2298634,472.732316 L71.2218559,479.10783 L65.9298163,479.10783 Z M75.1530853,458.026131 L75.0018841,457.218566 L74.6994819,457.218566 L74.5482807,458.026131 L72.9858691,467.886926 L76.7154969,467.886926 L75.1530853,458.026131 Z M96.0188413,479.10783 L93.1964202,465.931768 L91.7348092,465.931768 L91.7348092,479.10783 L86.2915685,479.10783 L86.2915685,447.867812 L91.7348092,447.867812 C98.2364578,447.867812 101.008479,450.970562 101.008479,456.878538 C101.008479,459.981288 100.050871,462.786515 97.984456,463.97661 L101.462082,479.10783 L96.0188413,479.10783 Z M91.7348092,461.681425 C92.4908149,461.681425 93.4988224,461.596419 94.3052285,461.001371 C95.1116345,460.406323 95.7668394,459.25873 95.7668394,457.048552 C95.7668394,454.838374 95.1116345,453.648278 94.3052285,453.05323 C93.4988224,452.458182 92.4908149,452.415678 91.7348092,452.415678 L91.7348092,461.681425 Z M110.231748,462.829018 L109.778144,461.383901 L109.475742,461.383901 L109.475742,479.10783 L104.486105,479.10783 L104.486105,447.867812 L109.324541,447.867812 L114.61658,464.146624 L115.070184,465.591741 L115.372586,465.591741 L115.372586,447.867812 L120.362223,447.867812 L120.362223,479.10783 L115.523787,479.10783 L110.231748,462.829018 Z M149.443241,482.848132 L145.31041,482.848132 L130.341498,444 L134.323128,444 L149.443241,482.848132 Z M168.444183,479.10783 L164.966557,459.471247 L164.764955,458.153641 L164.462553,458.153641 L164.462553,479.10783 L159.422515,479.10783 L159.422515,447.867812 L166.075365,447.867812 L169.300989,462.148963 L169.552991,463.806597 L169.653792,463.806597 L169.905794,462.148963 L173.131418,447.867812 L179.784268,447.867812 L179.784268,479.10783 L174.74423,479.10783 L174.74423,458.153641 L174.441828,458.153641 L174.240226,459.471247 L170.7626,479.10783 L168.444183,479.10783 Z M182.304286,479.10783 L187.898728,447.867812 L194.551578,447.867812 L200.14602,479.10783 L194.85398,479.10783 L193.845973,472.732316 L188.604333,472.732316 L187.596326,479.10783 L182.304286,479.10783 Z M191.527555,458.026131 L191.376354,457.218566 L191.073952,457.218566 L190.922751,458.026131 L189.360339,467.886926 L193.089967,467.886926 L191.527555,458.026131 Z M208.109279,447.867812 L208.109279,458.791192 L208.310881,458.791192 L208.562883,458.281151 L213.098917,447.867812 L218.390956,447.867812 L213.401319,458.153641 L219.046161,479.10783 L213.754122,479.10783 L209.974093,465.506734 L209.822892,464.869182 L209.671691,464.869182 L209.369289,465.506734 L208.109279,468.056939 L208.109279,479.10783 L202.666039,479.10783 L202.666039,447.867812 L208.109279,447.867812 Z M221.56618,447.867812 L234.015073,447.867812 L234.015073,452.585692 L227.009421,452.585692 L227.009421,460.788853 L232.049458,460.788853 L232.049458,465.804258 L227.009421,465.804258 L227.009421,474.38995 L234.015073,474.38995 L234.015073,479.10783 L221.56618,479.10783 L221.56618,447.867812 Z M262.088083,482.848132 L257.955252,482.848132 L242.98634,444 L246.96797,444 L262.088083,482.848132 Z M281.089025,456.240987 C281.089025,455.220905 281.038625,454.073312 280.685822,453.18074 C280.333019,452.330672 279.778615,451.735624 278.921809,451.735624 C277.510598,451.778127 277.056995,453.010726 277.056995,454.838374 C277.056995,455.900959 277.611399,457.006049 278.417805,458.196144 C279.224211,459.38624 280.282619,460.61884 281.341027,461.936446 C282.601036,463.509073 283.861046,465.124203 284.818653,466.69683 C285.77626,468.269457 286.431465,469.884587 286.431465,471.584724 C286.431465,473.667392 286.028262,475.622549 284.869053,477.067666 C283.709845,478.512782 281.845031,479.447858 278.871408,479.447858 C275.393782,479.447858 273.428168,478.342769 272.319359,476.642632 C271.210551,474.942494 270.958549,472.689813 270.958549,470.352124 L276.300989,469.92709 C276.300989,471.244696 276.35139,472.562303 276.754593,473.539881 C277.107395,474.559964 277.7122,475.240018 278.871408,475.240018 C280.48422,475.240018 281.089025,473.794902 281.089025,471.797241 C281.089025,470.777159 280.48422,469.587063 279.677814,468.354463 C279.224211,467.759415 278.770608,467.121864 278.266604,466.484313 C277.208196,465.20921 276.048987,463.764093 274.839378,462.191467 C273.629769,460.61884 272.722562,459.00371 272.168158,457.346076 C271.865756,456.538511 271.714555,455.688442 271.714555,454.838374 C271.714555,453.138237 272.168158,451.310589 273.327367,449.907976 C274.486576,448.547867 276.250589,447.570288 278.821008,447.527784 C282.097033,447.485281 284.012247,448.632873 285.070655,450.290507 C286.129063,451.990644 286.431465,454.073312 286.431465,455.815953 L281.089025,456.240987 Z M299.031559,465.506734 L294.797927,465.506734 L294.797927,479.10783 L289.354687,479.10783 L289.354687,447.867812 L294.797927,447.867812 L294.797927,460.788853 L299.031559,460.788853 L299.031559,447.867812 L304.4748,447.867812 L304.4748,479.10783 L299.031559,479.10783 L299.031559,465.506734 Z M306.994819,479.10783 L312.58926,447.867812 L319.24211,447.867812 L324.836552,479.10783 L319.544512,479.10783 L318.536505,472.732316 L313.294866,472.732316 L312.286858,479.10783 L306.994819,479.10783 Z M316.218088,458.026131 L316.066886,457.218566 L315.764484,457.218566 L315.613283,458.026131 L314.050871,467.886926 L317.780499,467.886926 L316.218088,458.026131 Z M337.083844,479.10783 L334.261423,465.931768 L332.799812,465.931768 L332.799812,479.10783 L327.356571,479.10783 L327.356571,447.867812 L332.799812,447.867812 C339.30146,447.867812 342.073481,450.970562 342.073481,456.878538 C342.073481,459.981288 341.115874,462.786515 339.049458,463.97661 L342.527084,479.10783 L337.083844,479.10783 Z M332.799812,461.681425 C333.555817,461.681425 334.563825,461.596419 335.370231,461.001371 C336.176637,460.406323 336.831842,459.25873 336.831842,457.048552 C336.831842,454.838374 336.176637,453.648278 335.370231,453.05323 C334.563825,452.458182 333.555817,452.415678 332.799812,452.415678 L332.799812,461.681425 Z M345.551107,447.867812 L358,447.867812 L358,452.585692 L350.994348,452.585692 L350.994348,460.788853 L356.034385,460.788853 L356.034385,465.804258 L350.994348,465.804258 L350.994348,474.38995 L358,474.38995 L358,479.10783 L345.551107,479.10783 L345.551107,447.867812 Z" id="LEARN-\-MAKE-\-SHARE"></path>
            <g id="logo" transform="translate(90.000000, 52.000000)">
                <g id="wrench">
                    <g id="Layer_1">
                        <path d="M105.5,84.0369122 C93.681497,72.8843381 84.5611183,64.2627723 83.5505929,63.264353 C80.4983592,60.2109892 81.5284881,57.3484607 82.4441582,55.1729389 C90.1128953,37.1580925 81.4521823,20.9370973 73.2111513,12.2350105 C64.70305,3.18942023 53.7150087,0.288724618 48.5643644,0.0215552857 C43.451873,-0.245614047 36.5461943,1.96807471 31.7007733,6.81528974 L53.2571737,28.4560057 L49.4800345,49.4860489 L28.457775,53.3027536 L6.90137466,31.6620377 C1.44550696,37.1199255 -0.271374486,43.6464906 0.0338488823,48.5700397 C0.33907225,53.5317559 2.17041246,63.226186 12.2046307,73.2641195 C22.2388489,83.302053 41.5823798,89.4087806 55.1648197,82.3860438 C57.1106187,81.3937006 60.0102407,80.3250233 63.253239,83.4928882 C64.4100156,84.6257309 72.7057226,93.3977637 83.4657193,104.817466 C63.9882195,123.178937 45.4206269,140.667125 45.4206269,140.667125 C38.0189603,147.041022 38.5531012,158.83464 45.382474,165.704709 C52.3263056,172.53661 64.0392524,172.956448 70.4107902,165.590207 C70.4107902,165.590207 87.4207483,147.464195 105.5,128.233407 C123.579252,147.464195 140.58921,165.590207 140.58921,165.590207 C146.960748,172.956448 158.673694,172.53661 165.617526,165.704709 C172.446899,158.83464 172.98104,147.041022 165.579373,140.667125 C165.579373,140.667125 147.011781,123.178937 127.534281,104.817466 C138.294277,93.3977637 146.589984,84.6257309 147.746761,83.4928882 C150.989759,80.3250233 153.889381,81.3937006 155.83518,82.3860438 C169.41762,89.4087806 188.761151,83.302053 198.795369,73.2641195 C208.829588,63.226186 210.660928,53.5317559 210.966151,48.5700397 C211.271374,43.6464906 209.554493,37.1199255 204.098625,31.6620377 L182.542225,53.3027536 L161.519966,49.4860489 L157.742826,28.4560057 L179.299227,6.81528974 C174.453806,1.96807471 167.548127,-0.245614047 162.435636,0.0215552857 C157.284991,0.288724618 146.29695,3.18942023 137.788849,12.2350105 C129.547818,20.9370973 120.887105,37.1580925 128.555842,55.1729389 C129.471512,57.3484607 130.501641,60.2109892 127.449407,63.264353 C126.438882,64.2627723 117.318503,72.8843381 105.5,84.0369122 Z M62.7039002,156.964455 C60.3002661,159.330812 56.4086682,159.330812 54.0431871,156.964455 C51.677706,154.559931 51.677706,150.666892 54.0431871,148.300535 C56.4468211,145.934178 60.3384191,145.934178 62.7039002,148.300535 C65.0693813,150.705059 65.0693813,154.598098 62.7039002,156.964455 Z M148.2961,156.964455 C150.699734,159.330812 154.591332,159.330812 156.956813,156.964455 C159.322294,154.559931 159.322294,150.666892 156.956813,148.300535 C154.553179,145.934178 150.661581,145.934178 148.2961,148.300535 C145.930619,150.705059 145.930619,154.598098 148.2961,156.964455 Z" id="Shape"></path>
                    </g>
                </g>
            </g>
            <path d="M176,432.696 C176.456,431.352 177.152,430.416 178.136,429.648 C178.64,429.288 179.24,429.096 179.936,429.096 C181.376,429.096 182.24,429.72 183.176,430.296 C183.824,430.752 184.472,431.136 185.216,431.136 C185.96,431.136 186.536,430.632 186.896,430.08 C187.112,429.768 187.28,429.408 187.448,429 L189.032,429.672 C188.528,431.04 187.856,432 186.92,432.744 C186.44,433.104 185.864,433.296 185.216,433.296 C183.872,433.296 182.96,432.72 182.024,432.12 C181.352,431.664 180.68,431.256 179.936,431.256 C179.096,431.256 178.52,431.76 178.136,432.312 C177.92,432.624 177.728,432.96 177.584,433.368 L176,432.696 Z M191,432.696 C191.456,431.352 192.152,430.416 193.136,429.648 C193.64,429.288 194.24,429.096 194.936,429.096 C196.376,429.096 197.24,429.72 198.176,430.296 C198.824,430.752 199.472,431.136 200.216,431.136 C200.96,431.136 201.536,430.632 201.896,430.08 C202.112,429.768 202.28,429.408 202.448,429 L204.032,429.672 C203.528,431.04 202.856,432 201.92,432.744 C201.44,433.104 200.864,433.296 200.216,433.296 C198.872,433.296 197.96,432.72 197.024,432.12 C196.352,431.664 195.68,431.256 194.936,431.256 C194.096,431.256 193.52,431.76 193.136,432.312 C192.92,432.624 192.728,432.96 192.584,433.368 L191,432.696 Z M206,432.696 C206.456,431.352 207.152,430.416 208.136,429.648 C208.64,429.288 209.24,429.096 209.936,429.096 C211.376,429.096 212.24,429.72 213.176,430.296 C213.824,430.752 214.472,431.136 215.216,431.136 C215.96,431.136 216.536,430.632 216.896,430.08 C217.112,429.768 217.28,429.408 217.448,429 L219.032,429.672 C218.528,431.04 217.856,432 216.92,432.744 C216.44,433.104 215.864,433.296 215.216,433.296 C213.872,433.296 212.96,432.72 212.024,432.12 C211.352,431.664 210.68,431.256 209.936,431.256 C209.096,431.256 208.52,431.76 208.136,432.312 C207.92,432.624 207.728,432.96 207.584,433.368 L206,432.696 Z" id="~~~"></path>
            <polygon id="Path-128" points="174.255183 257.273991 178.5 246.273991 185.518813 278.401971 194 248.773991 200.5 278.40197 208.10788 248.773991 215.5 278.40197 224 257.273991 260.5 257.273991 260.5 253.273991 221.180466 253.273991 216.5 264.273991 208.107883 232.074668 201 261.773991 194.973789 232 186.5 262.273991 180 232 171.100491 253.273991 134 253.273991 134 257.273991"></polygon>
        </g>
    </g>
</svg>