<?xml version="1.0" encoding="UTF-8" standalone="no"?>
<svg width="211px" height="226px" viewBox="0 0 211 226" version="1.1" xmlns="http://www.w3.org/2000/svg" xmlns:xlink="http://www.w3.org/1999/xlink">
    <!-- Generator: Sketch 3.8.1 (29687) - http://www.bohemiancoding.com/sketch -->
    <title>logo/logo</title>
    <desc>Created with Sketch.</desc>
    <defs></defs>
    <g id="brand" stroke="none" stroke-width="1" fill="none" fill-rule="evenodd">
        <g id="logo/logo" fill="#000000">
            <g id="logo">
                <g id="wrench">
                    <g id="Layer_1">
                        <path d="M105.5,84.0369122 C93.681497,72.8843381 84.5611183,64.2627723 83.5505929,63.264353 C80.4983592,60.2109892 81.5284881,57.3484607 82.4441582,55.1729389 C90.1128953,37.1580925 81.4521823,20.9370973 73.2111513,12.2350105 C64.70305,3.18942023 53.7150087,0.288724618 48.5643644,0.0215552857 C43.451873,-0.245614047 36.5461943,1.96807471 31.7007733,6.81528974 L53.2571737,28.4560057 L49.4800345,49.4860489 L28.457775,53.3027536 L6.90137466,31.6620377 C1.44550696,37.1199255 -0.271374486,43.6464906 0.0338488823,48.5700397 C0.33907225,53.5317559 2.17041246,63.226186 12.2046307,73.2641195 C22.2388489,83.302053 41.5823798,89.4087806 55.1648197,82.3860438 C57.1106187,81.3937006 60.0102407,80.3250233 63.253239,83.4928882 C64.4100156,84.6257309 72.7057226,93.3977637 83.4657193,104.817466 C63.9882195,123.178937 45.4206269,140.667125 45.4206269,140.667125 C38.0189603,147.041022 38.5531012,158.83464 45.382474,165.704709 C52.3263056,172.53661 64.0392524,172.956448 70.4107902,165.590207 C70.4107902,165.590207 87.4207483,147.464195 105.5,128.233407 C123.579252,147.464195 140.58921,165.590207 140.58921,165.590207 C146.960748,172.956448 158.673694,172.53661 165.617526,165.704709 C172.446899,158.83464 172.98104,147.041022 165.579373,140.667125 C165.579373,140.667125 147.011781,123.178937 127.534281,104.817466 C138.294277,93.3977637 146.589984,84.6257309 147.746761,83.4928882 C150.989759,80.3250233 153.889381,81.3937006 155.83518,82.3860438 C169.41762,89.4087806 188.761151,83.302053 198.795369,73.2641195 C208.829588,63.226186 210.660928,53.5317559 210.966151,48.5700397 C211.271374,43.6464906 209.554493,37.1199255 204.098625,31.6620377 L182.542225,53.3027536 L161.519966,49.4860489 L157.742826,28.4560057 L179.299227,6.81528974 C174.453806,1.96807471 167.548127,-0.245614047 162.435636,0.0215552857 C157.284991,0.288724618 146.29695,3.18942023 137.788849,12.2350105 C129.547818,20.9370973 120.887105,37.1580925 128.555842,55.1729389 C129.471512,57.3484607 130.501641,60.2109892 127.449407,63.264353 C126.438882,64.2627723 117.318503,72.8843381 105.5,84.0369122 Z M62.7039002,156.964455 C60.3002661,159.330812 56.4086682,159.330812 54.0431871,156.964455 C51.677706,154.559931 51.677706,150.666892 54.0431871,148.300535 C56.4468211,145.934178 60.3384191,145.934178 62.7039002,148.300535 C65.0693813,150.705059 65.0693813,154.598098 62.7039002,156.964455 Z M148.2961,156.964455 C150.699734,159.330812 154.591332,159.330812 156.956813,156.964455 C159.322294,154.559931 159.322294,150.666892 156.956813,148.300535 C154.553179,145.934178 150.661581,145.934178 148.2961,148.300535 C145.930619,150.705059 145.930619,154.598098 148.2961,156.964455 Z" id="Shape"></path>
                    </g>
                </g>
                <polygon id="Path-128" points="83.7551827 205 88 194 95.0188128 226.127981 103.5 196.5 110 226.127979 117.60788 196.5 125 226.127979 133.5 205 170 205 170 201 130.680466 201 126 212 117.607883 179.800678 110.5 209.5 104.473789 179.726009 96 210 89.5 179.726009 80.6004906 201 43.5 201 43.5 205"></polygon>
            </g>
        </g>
    </g>
</svg>