<?xml version="1.0" encoding="utf-8"?>
<!-- Generator: Adobe Illustrator 23.0.3, SVG Export Plug-In . SVG Version: 6.00 Build 0)  -->
<svg version="1.1" id="Layer_1" xmlns="http://www.w3.org/2000/svg" xmlns:xlink="http://www.w3.org/1999/xlink" x="0px" y="0px"
	 viewBox="0 0 602.12 644.69" style="enable-background:new 0 0 602.12 644.69;" xml:space="preserve">
<style type="text/css">
	.st0{fill-rule:evenodd;clip-rule:evenodd;}
</style>
<path class="st0" d="M582.43,90.35l-61.51,61.76l-59.99-10.89L450.15,81.2l61.51-61.76C497.83,5.62,478.13-0.7,463.54,0.06
	c-14.7,0.76-46.05,9.04-70.33,34.85c-23.52,24.83-48.23,71.12-26.35,122.53c2.61,6.21,5.55,14.38-3.16,23.09
	c-2.88,2.85-28.91,27.45-62.64,59.28c-33.73-31.83-59.75-56.43-62.64-59.28c-8.71-8.71-5.77-16.88-3.16-23.09
	c21.88-51.41-2.83-97.7-26.35-122.53C184.64,9.1,153.29,0.82,138.59,0.06C124-0.7,104.29,5.62,90.46,19.45l61.51,61.76l-10.78,60.01
	l-59.99,10.89L19.69,90.35C4.13,105.93-0.77,124.55,0.1,138.6c0.87,14.16,6.1,41.82,34.73,70.47
	c28.63,28.65,83.83,46.07,122.59,26.03c5.55-2.83,13.83-5.88,23.08,3.16c3.3,3.23,26.97,28.27,57.68,60.85
	c-55.58,52.4-108.57,102.3-108.57,102.3c-21.12,18.19-19.6,51.84-0.11,71.45c19.82,19.5,53.24,20.69,71.42-0.33
	c0,0,48.54-51.73,100.13-106.6c51.59,54.88,100.13,106.6,100.13,106.6c18.18,21.02,51.61,19.82,71.42,0.33
	c19.49-19.6,21.01-53.26-0.11-71.45c0,0-52.99-49.91-108.57-102.3c30.71-32.59,54.38-57.62,57.68-60.85
	c9.25-9.04,17.53-5.99,23.08-3.16c38.76,20.04,93.96,2.61,122.59-26.03c28.63-28.64,33.86-56.31,34.73-70.47
	C602.9,124.55,598,105.93,582.43,90.35z M178.94,447.93c-6.86,6.75-17.96,6.75-24.71,0c-6.75-6.86-6.75-17.97,0-24.72
	c6.86-6.75,17.96-6.75,24.71,0C185.69,430.06,185.69,441.17,178.94,447.93z M423.19,423.2c6.75-6.75,17.86-6.75,24.71,0
	c6.75,6.75,6.75,17.86,0,24.72c-6.75,6.75-17.86,6.75-24.71,0C416.44,441.17,416.44,430.06,423.19,423.2z"/>
<polygon points="267.59,644.69 291.79,560.14 310.34,644.69 332.05,560.14 353.14,644.69 377.4,584.4 481.56,584.4 481.56,572.98 
	369.35,572.98 356,604.37 332.05,512.48 311.76,597.24 294.57,512.27 270.39,598.66 251.84,512.27 226.44,572.98 120.57,572.98 
	120.57,584.4 235.44,584.4 247.56,553 "/>
</svg>
