<?xml version="1.0" encoding="UTF-8" standalone="no"?>
<svg width="716px" height="340px" viewBox="0 0 716 340" version="1.1" xmlns="http://www.w3.org/2000/svg" xmlns:xlink="http://www.w3.org/1999/xlink">
    <!-- Generator: Sketch 40.2 (33826) - http://www.bohemiancoding.com/sketch -->
    <title>CNC/plotter</title>
    <desc>Created with Sketch.</desc>
    <defs></defs>
    <g id="CNC" stroke="none" stroke-width="1" fill="none" fill-rule="evenodd">
        <g id="CNC/plotter" fill="#414141">
            <path d="M171,176.804024 C187.342188,161.391524 201.280541,148.228568 202.578399,146.946378 C205.808578,143.715307 204.718392,140.686177 203.749338,138.384039 C195.633513,119.320717 204.799147,102.15565 213.520631,92.9470958 C222.524755,83.3750465 234.1534,80.3055286 239.604328,80.0228098 C245.014878,79.7400911 252.323159,82.0826179 257.451068,87.2119439 L234.637927,110.112163 L238.635274,132.366168 L260.883134,136.405008 L283.696274,113.504788 C289.47022,119.280329 291.287196,126.186744 290.964178,131.396847 C290.64116,136.647338 288.703052,146.90599 278.083838,157.528138 C267.464624,168.150285 246.993363,174.612428 232.619065,167.180964 C230.559826,166.130865 227.491156,164.99999 224.05909,168.352227 C222.565188,169.815083 209.820843,183.315624 194.815823,199.255593 C211.866457,215.324263 226.232668,228.854041 226.232668,228.854041 C234.065853,235.598903 233.500572,248.078916 226.273046,255.348827 C218.924388,262.57835 206.528575,263.022622 199.785576,255.227662 C199.785576,255.227662 186.7088,241.294205 171,224.579014 C155.2912,241.294205 142.214424,255.227662 142.214424,255.227662 C135.471425,263.022622 123.075612,262.57835 115.726954,255.348827 C108.499428,248.078916 107.934147,235.598903 115.767332,228.854041 C115.767332,228.854041 130.133543,215.324263 147.184177,199.255593 C132.179157,183.315624 119.434812,169.815083 117.94091,168.352227 C114.508844,164.99999 111.440174,166.130865 109.380935,167.180964 C95.0066371,174.612428 74.5353762,168.150285 63.916162,157.528138 C53.2969477,146.90599 51.3588402,136.647338 51.0358223,131.396847 C50.7128044,126.186744 52.5297802,119.280329 58.3037255,113.504788 L81.1168664,136.405008 L103.364726,132.366168 L107.362073,110.112163 L84.5489318,87.2119439 C89.6768413,82.0826179 96.9851218,79.7400911 102.395672,80.0228098 C107.8466,80.3055286 119.475245,83.3750465 128.479369,92.9470958 C137.200853,102.15565 146.366487,119.320717 138.250662,138.384039 C137.281608,140.686177 136.191422,143.715307 139.421601,146.946378 C140.719459,148.228568 154.657812,161.391524 171,176.804024 Z M207.941778,246.099885 C210.485545,248.603966 214.604023,248.603966 217.107412,246.099885 C219.610801,243.555416 219.610801,239.4358 217.107412,236.93172 C214.563646,234.427639 210.445167,234.427639 207.941778,236.93172 C205.43839,239.476189 205.43839,243.595805 207.941778,246.099885 Z M134.058222,246.099885 C131.514455,248.603966 127.395977,248.603966 124.892588,246.099885 C122.389199,243.555416 122.389199,239.4358 124.892588,236.93172 C127.436354,234.427639 131.554833,234.427639 134.058222,236.93172 C136.56161,239.476189 136.56161,243.595805 134.058222,246.099885 Z" id="Shape"></path>
            <path d="M499.583302,185.44772 C512.016519,173.331095 522.620885,162.982961 523.608302,161.97496 C526.065838,159.434835 525.236419,157.053467 524.499158,155.243628 C518.324599,140.256888 525.297858,126.762472 531.933205,119.523115 C538.783587,111.997993 547.630717,109.584874 551.777809,109.362613 C555.894182,109.140352 561.454357,110.981943 565.355696,115.014392 L547.999347,133.017531 L551.040548,150.512645 L567.966828,153.687801 L585.323176,135.684662 C589.716022,140.225137 591.098386,145.654655 590.852632,149.750607 C590.606879,153.878311 589.132357,161.943209 581.053207,170.293871 C572.974057,178.644533 557.399423,183.724784 546.463387,177.882496 C544.896708,177.056955 542.562049,176.167911 539.950916,178.803291 C538.814348,179.953324 529.118388,190.566851 517.702496,203.098149 C530.674702,215.730627 541.604585,226.367139 541.604585,226.367139 C547.56411,231.669651 547.134041,241.480886 541.635304,247.196168 C536.04441,252.879698 526.613615,253.228966 521.483509,247.100913 C521.483509,247.100913 511.534634,236.147046 499.583302,223.006303 C487.631971,236.147046 477.683096,247.100913 477.683096,247.100913 C472.55299,253.228966 463.122195,252.879698 457.531301,247.196168 C452.032564,241.480886 451.602495,231.669651 457.56202,226.367139 C457.56202,226.367139 468.491903,215.730627 481.464109,203.098149 C470.048217,190.566851 460.352257,179.953324 459.215688,178.803291 C456.604556,176.167911 454.269897,177.056955 452.703218,177.882496 C441.767182,183.724784 426.192548,178.644533 418.113398,170.293871 C410.034248,161.943209 408.559726,153.878311 408.313973,149.750607 C408.068219,145.654655 409.450583,140.225137 413.843429,135.684662 L431.199777,153.687801 L448.126057,150.512645 L451.167258,133.017531 L433.810909,115.014392 C437.712248,110.981943 443.272423,109.140352 447.388796,109.362613 C451.535888,109.584874 460.383018,111.997993 467.2334,119.523115 C473.868747,126.762472 480.842006,140.256888 474.667447,155.243628 C473.930186,157.053467 473.100767,159.434835 475.558303,161.97496 C476.54572,162.982961 487.150086,173.331095 499.583302,185.44772 Z M499.583302,40 L612.166605,105 L612.166605,235 L499.583302,300 L387,235 L387,105 L499.583302,40 Z" id="Polygon-1"></path>
        </g>
    </g>
</svg>