<?xml version="1.0" encoding="UTF-8" standalone="no"?>
<svg width="840px" height="290px" viewBox="0 0 840 290" version="1.1" xmlns="http://www.w3.org/2000/svg" xmlns:xlink="http://www.w3.org/1999/xlink">
    <!-- Generator: Sketch 40.2 (33826) - http://www.bohemiancoding.com/sketch -->
    <title>horizontal/text-baseline</title>
    <desc>Created with Sketch.</desc>
    <defs></defs>
    <g id="brand" stroke="none" stroke-width="1" fill="none" fill-rule="evenodd">
        <g id="horizontal/text-baseline" fill="#000000">
            <path d="M336.32,32.864 L347.984,32.864 L347.984,101.444 L363.428,101.444 L363.428,112.244 L336.32,112.244 L336.32,32.864 Z M368.18,32.864 L379.844,32.864 L379.844,112.244 L368.18,112.244 L368.18,32.864 Z M388.484,32.864 L415.16,32.864 L415.16,44.852 L400.148,44.852 L400.148,65.696 L410.948,65.696 L410.948,78.44 L400.148,78.44 L400.148,100.256 L415.16,100.256 L415.16,112.244 L388.484,112.244 L388.484,32.864 Z M440.324,61.376 L440.324,49.172 C440.324,47.012 439.892,45.5 438.812,44.204 C438.272,43.664 437.408,43.34 436.436,43.34 C434.384,43.34 433.412,44.852 432.98,46.256 C432.656,47.12 432.548,48.092 432.548,49.172 L432.548,96.908 C432.548,99.176 433.088,100.688 434.168,101.876 C434.708,102.416 435.464,102.74 436.436,102.74 C438.488,102.74 439.46,101.444 439.892,99.824 C440.216,99.068 440.324,98.096 440.324,96.908 L440.324,82.544 L435.68,82.544 L435.68,72.716 L451.988,72.716 L451.988,112.244 L445.076,112.244 L443.672,108.464 C441.512,111.164 438.38,113.108 434.6,113.108 C430.82,113.108 428.228,112.136 426.284,110.408 C424.34,108.788 423.044,106.736 422.18,104.576 C421.208,102.092 420.776,99.176 420.884,95.936 L420.884,49.172 C420.992,46.04 421.64,43.124 422.828,40.64 C423.8,38.48 425.204,36.32 427.364,34.7 C429.524,33.08 432.548,32 436.436,32 C440.324,32 443.24,33.08 445.4,34.7 C447.56,36.32 449.072,38.48 450.044,40.64 C451.232,43.124 451.88,46.04 451.988,49.172 L451.988,61.376 L440.324,61.376 Z M460.52,32.864 L487.196,32.864 L487.196,44.852 L472.184,44.852 L472.184,65.696 L482.984,65.696 L482.984,78.44 L472.184,78.44 L472.184,100.256 L487.196,100.256 L487.196,112.244 L460.52,112.244 L460.52,32.864 Z" id="LIEGE"></path>
            <path d="M357.056,169.684 L347.984,169.684 L347.984,204.244 L336.32,204.244 L336.32,124.864 L347.984,124.864 L347.984,157.696 L357.056,157.696 L357.056,124.864 L368.72,124.864 L368.72,204.244 L357.056,204.244 L357.056,169.684 Z M374.12,204.244 L386.108,124.864 L400.364,124.864 L412.352,204.244 L401.012,204.244 L398.852,188.044 L387.62,188.044 L385.46,204.244 L374.12,204.244 Z M393.884,150.676 L393.56,148.624 L392.912,148.624 L392.588,150.676 L389.24,175.732 L397.232,175.732 L393.884,150.676 Z M448.1,177.028 L448.1,187.936 C447.992,191.176 447.344,194.092 446.156,196.576 C445.184,198.736 443.672,200.788 441.512,202.408 C439.352,204.136 436.436,205.108 432.548,205.108 C428.66,205.108 425.636,204.136 423.476,202.408 C421.316,200.788 419.912,198.736 418.94,196.576 C417.752,194.092 417.104,191.176 416.996,187.936 L416.996,141.172 C417.104,138.04 417.752,135.124 418.94,132.64 C419.912,130.48 421.316,128.32 423.476,126.7 C425.636,125.08 428.66,124 432.548,124 C436.436,124 439.352,125.08 441.512,126.7 C443.672,128.32 445.184,130.48 446.156,132.64 C447.344,135.124 447.992,138.04 448.1,141.172 L448.1,152.08 L437.192,152.08 L437.192,141.172 C437.192,139.012 436.652,137.5 435.464,136.204 C434.924,135.664 433.952,135.34 432.764,135.34 C430.712,135.34 429.74,136.852 429.2,138.256 C428.876,139.12 428.768,140.092 428.66,141.172 L428.66,187.936 C428.768,190.204 429.416,191.716 430.496,192.904 C431.036,193.444 431.792,193.768 432.764,193.768 C435.248,193.768 436.22,192.472 436.76,190.852 C437.084,190.096 437.192,189.124 437.192,187.936 L437.192,177.028 L448.1,177.028 Z M466.784,124.864 L466.784,152.62 L467.216,152.62 L467.756,151.324 L477.476,124.864 L488.816,124.864 L478.124,151 L490.22,204.244 L478.88,204.244 L470.78,169.684 L470.456,168.064 L470.132,168.064 L469.484,169.684 L466.784,176.164 L466.784,204.244 L455.12,204.244 L455.12,124.864 L466.784,124.864 Z M495.62,124.864 L522.296,124.864 L522.296,136.852 L507.284,136.852 L507.284,157.696 L518.084,157.696 L518.084,170.44 L507.284,170.44 L507.284,192.256 L522.296,192.256 L522.296,204.244 L495.62,204.244 L495.62,124.864 Z M549.62,204.244 L543.572,170.764 L540.44,170.764 L540.44,204.244 L528.776,204.244 L528.776,124.864 L540.44,124.864 C554.372,124.864 560.312,132.748 560.312,147.76 C560.312,155.644 558.26,162.772 553.832,165.796 L561.284,204.244 L549.62,204.244 Z M540.44,159.964 C542.06,159.964 544.22,159.748 545.948,158.236 C547.676,156.724 549.08,153.808 549.08,148.192 C549.08,142.576 547.676,139.552 545.948,138.04 C544.22,136.528 542.06,136.42 540.44,136.42 L540.44,159.964 Z M587.096,146.14 C587.096,143.548 586.988,140.632 586.232,138.364 C585.476,136.204 584.288,134.692 582.452,134.692 C579.428,134.8 578.456,137.932 578.456,142.576 C578.456,145.276 579.644,148.084 581.372,151.108 C583.1,154.132 585.368,157.264 587.636,160.612 C590.336,164.608 593.036,168.712 595.088,172.708 C597.14,176.704 598.544,180.808 598.544,185.128 C598.544,190.42 597.68,195.388 595.196,199.06 C592.712,202.732 588.716,205.108 582.344,205.108 C574.892,205.108 570.68,202.3 568.304,197.98 C565.928,193.66 565.388,187.936 565.388,181.996 L576.836,180.916 C576.836,184.264 576.944,187.612 577.808,190.096 C578.564,192.688 579.86,194.416 582.344,194.416 C585.8,194.416 587.096,190.744 587.096,185.668 C587.096,183.076 585.8,180.052 584.072,176.92 C583.1,175.408 582.128,173.788 581.048,172.168 C578.78,168.928 576.296,165.256 573.704,161.26 C571.112,157.264 569.168,153.16 567.98,148.948 C567.332,146.896 567.008,144.736 567.008,142.576 C567.008,138.256 567.98,133.612 570.464,130.048 C572.948,126.592 576.728,124.108 582.236,124 C589.256,123.892 593.36,126.808 595.628,131.02 C597.896,135.34 598.544,140.632 598.544,145.06 L587.096,146.14 Z M604.808,124.864 L616.472,124.864 C621.548,124.864 626.624,126.16 630.512,129.832 C634.4,133.504 636.992,139.552 636.992,148.624 C636.992,157.696 634.4,163.636 630.512,167.308 C626.624,170.98 621.548,172.492 616.472,172.492 L616.472,204.244 L604.808,204.244 L604.808,124.864 Z M616.472,160.612 C620.036,160.612 622.304,159.964 623.6,158.128 C624.896,156.4 625.22,153.484 625.22,149.056 C625.22,144.628 624.896,141.496 623.6,139.552 C622.304,137.608 620.036,136.744 616.472,136.744 L616.472,160.612 Z M639.584,204.244 L651.572,124.864 L665.828,124.864 L677.816,204.244 L666.476,204.244 L664.316,188.044 L653.084,188.044 L650.924,204.244 L639.584,204.244 Z M659.348,150.676 L659.024,148.624 L658.376,148.624 L658.052,150.676 L654.704,175.732 L662.696,175.732 L659.348,150.676 Z M713.564,177.028 L713.564,187.936 C713.456,191.176 712.808,194.092 711.62,196.576 C710.648,198.736 709.136,200.788 706.976,202.408 C704.816,204.136 701.9,205.108 698.012,205.108 C694.124,205.108 691.1,204.136 688.94,202.408 C686.78,200.788 685.376,198.736 684.404,196.576 C683.216,194.092 682.568,191.176 682.46,187.936 L682.46,141.172 C682.568,138.04 683.216,135.124 684.404,132.64 C685.376,130.48 686.78,128.32 688.94,126.7 C691.1,125.08 694.124,124 698.012,124 C701.9,124 704.816,125.08 706.976,126.7 C709.136,128.32 710.648,130.48 711.62,132.64 C712.808,135.124 713.456,138.04 713.564,141.172 L713.564,152.08 L702.656,152.08 L702.656,141.172 C702.656,139.012 702.116,137.5 700.928,136.204 C700.388,135.664 699.416,135.34 698.228,135.34 C696.176,135.34 695.204,136.852 694.664,138.256 C694.34,139.12 694.232,140.092 694.124,141.172 L694.124,187.936 C694.232,190.204 694.88,191.716 695.96,192.904 C696.5,193.444 697.256,193.768 698.228,193.768 C700.712,193.768 701.684,192.472 702.224,190.852 C702.548,190.096 702.656,189.124 702.656,187.936 L702.656,177.028 L713.564,177.028 Z M720.584,124.864 L747.26,124.864 L747.26,136.852 L732.248,136.852 L732.248,157.696 L743.048,157.696 L743.048,170.44 L732.248,170.44 L732.248,192.256 L747.26,192.256 L747.26,204.244 L720.584,204.244 L720.584,124.864 Z" id="HACKERSPACE"></path>
            <polygon id="Shape" points="687.731707 239 746.268293 239 747 239 747 235 746.268293 235 687.731707 235 687 235 687 239"></polygon>
            <path d="M336,220.982495 L341.604636,220.982495 L341.604636,248.772429 L349.025589,248.772429 L349.025589,253.148796 L336,253.148796 L336,220.982495 Z M351.308959,220.982495 L364.126968,220.982495 L364.126968,225.840263 L356.913594,225.840263 L356.913594,234.286652 L362.103072,234.286652 L362.103072,239.450766 L356.913594,239.450766 L356.913594,248.291028 L364.126968,248.291028 L364.126968,253.148796 L351.308959,253.148796 L351.308959,220.982495 Z M365.787601,253.148796 L371.547921,220.982495 L378.398031,220.982495 L384.158352,253.148796 L378.7094,253.148796 L377.671505,246.584245 L372.274448,246.584245 L371.236552,253.148796 L365.787601,253.148796 Z M375.284345,231.442013 L375.128661,230.610503 L374.817292,230.610503 L374.661608,231.442013 L373.05287,241.595186 L376.893083,241.595186 L375.284345,231.442013 Z M396.768782,253.148796 L393.862675,239.582057 L392.357726,239.582057 L392.357726,253.148796 L386.75309,253.148796 L386.75309,220.982495 L392.357726,220.982495 C399.052152,220.982495 401.906365,224.177243 401.906365,230.260394 C401.906365,233.455142 400.920364,236.343545 398.792678,237.568928 L402.373418,253.148796 L396.768782,253.148796 Z M392.357726,235.205689 C393.136148,235.205689 394.174043,235.118162 395.00436,234.50547 C395.834676,233.892779 396.509308,232.71116 396.509308,230.435449 C396.509308,228.159737 395.834676,226.934354 395.00436,226.321663 C394.174043,225.708972 393.136148,225.665208 392.357726,225.665208 L392.357726,235.205689 Z M411.403109,236.387309 L410.936056,234.899344 L410.624687,234.899344 L410.624687,253.148796 L405.487104,253.148796 L405.487104,220.982495 L410.469003,220.982495 L415.917954,237.743982 L416.385007,239.231947 L416.696376,239.231947 L416.696376,220.982495 L421.833958,220.982495 L421.833958,253.148796 L416.85206,253.148796 L411.403109,236.387309 Z M451.777244,257 L447.521872,257 L432.109124,217 L436.208811,217 L451.777244,257 Z M471.341574,253.148796 L467.760835,232.929978 L467.553256,231.573304 L467.241887,231.573304 L467.241887,253.148796 L462.052409,253.148796 L462.052409,220.982495 L468.90252,220.982495 L472.223785,235.68709 L472.483259,237.393873 L472.587049,237.393873 L472.846523,235.68709 L476.167788,220.982495 L483.017899,220.982495 L483.017899,253.148796 L477.828421,253.148796 L477.828421,231.573304 L477.517052,231.573304 L477.309473,232.929978 L473.728734,253.148796 L471.341574,253.148796 Z M485.612637,253.148796 L491.372957,220.982495 L498.223068,220.982495 L503.983388,253.148796 L498.534436,253.148796 L497.496541,246.584245 L492.099484,246.584245 L491.061589,253.148796 L485.612637,253.148796 Z M495.109381,231.442013 L494.953697,230.610503 L494.642328,230.610503 L494.486644,231.442013 L492.877906,241.595186 L496.718119,241.595186 L495.109381,231.442013 Z M512.182762,220.982495 L512.182762,232.229759 L512.390341,232.229759 L512.649815,231.704595 L517.320345,220.982495 L522.769296,220.982495 L517.631714,231.573304 L523.443929,253.148796 L517.994977,253.148796 L514.102869,239.14442 L513.947185,238.487965 L513.7915,238.487965 L513.480132,239.14442 L512.182762,241.770241 L512.182762,253.148796 L506.578127,253.148796 L506.578127,220.982495 L512.182762,220.982495 Z M526.038667,220.982495 L538.856677,220.982495 L538.856677,225.840263 L531.643303,225.840263 L531.643303,234.286652 L536.832781,234.286652 L536.832781,239.450766 L531.643303,239.450766 L531.643303,248.291028 L538.856677,248.291028 L538.856677,253.148796 L526.038667,253.148796 L526.038667,220.982495 Z M567.762067,257 L563.506695,257 L548.093947,217 L552.193634,217 L567.762067,257 Z M587.326397,229.603939 C587.326397,228.553611 587.274502,227.371991 586.911239,226.452954 C586.547975,225.577681 585.977133,224.964989 585.094922,224.964989 C583.641868,225.008753 583.174815,226.277899 583.174815,228.159737 C583.174815,229.253829 583.745658,230.391685 584.575974,231.617068 C585.40629,232.842451 586.496081,234.111597 587.585871,235.468271 C588.88324,237.087527 590.18061,238.750547 591.16661,240.369803 C592.152611,241.989059 592.827243,243.652079 592.827243,245.402626 C592.827243,247.547046 592.412085,249.560175 591.218505,251.04814 C590.024925,252.536105 588.104819,253.498906 585.043027,253.498906 C581.462287,253.498906 579.438391,252.36105 578.296706,250.610503 C577.155021,248.859956 576.895547,246.540481 576.895547,244.133479 L582.396393,243.695842 C582.396393,245.052516 582.448288,246.40919 582.863446,247.415755 C583.22671,248.466083 583.849447,249.166302 585.043027,249.166302 C586.70366,249.166302 587.326397,247.678337 587.326397,245.621444 C587.326397,244.571116 586.70366,243.345733 585.873343,242.076586 C585.40629,241.463895 584.939237,240.80744 584.42029,240.150985 C583.330499,238.838074 582.136919,237.350109 580.891445,235.730853 C579.64597,234.111597 578.711864,232.448578 578.141022,230.741794 C577.829653,229.910284 577.673969,229.035011 577.673969,228.159737 C577.673969,226.40919 578.141022,224.527352 579.334602,223.083151 C580.528181,221.682713 582.344499,220.676149 584.991132,220.632385 C588.364293,220.588621 590.336294,221.770241 591.426084,223.477024 C592.515875,225.227571 592.827243,227.371991 592.827243,229.166302 L587.326397,229.603939 Z M605.800937,239.14442 L601.441776,239.14442 L601.441776,253.148796 L595.83714,253.148796 L595.83714,220.982495 L601.441776,220.982495 L601.441776,234.286652 L605.800937,234.286652 L605.800937,220.982495 L611.405573,220.982495 L611.405573,253.148796 L605.800937,253.148796 L605.800937,239.14442 Z M614.000312,253.148796 L619.760632,220.982495 L626.610742,220.982495 L632.371062,253.148796 L626.922111,253.148796 L625.884215,246.584245 L620.487158,246.584245 L619.449263,253.148796 L614.000312,253.148796 Z M623.497055,231.442013 L623.341371,230.610503 L623.030002,230.610503 L622.874318,231.442013 L621.26558,241.595186 L625.105793,241.595186 L623.497055,231.442013 Z M644.981492,253.148796 L642.075385,239.582057 L640.570437,239.582057 L640.570437,253.148796 L634.965801,253.148796 L634.965801,220.982495 L640.570437,220.982495 C647.264863,220.982495 650.119075,224.177243 650.119075,230.260394 C650.119075,233.455142 649.133074,236.343545 647.005389,237.568928 L650.586128,253.148796 L644.981492,253.148796 Z M640.570437,235.205689 C641.348858,235.205689 642.386754,235.118162 643.21707,234.50547 C644.047386,233.892779 644.722019,232.71116 644.722019,230.435449 C644.722019,228.159737 644.047386,226.934354 643.21707,226.321663 C642.386754,225.708972 641.348858,225.665208 640.570437,225.665208 L640.570437,235.205689 Z M653.699815,220.982495 L666.517824,220.982495 L666.517824,225.840263 L659.30445,225.840263 L659.30445,234.286652 L664.493928,234.286652 L664.493928,239.450766 L659.30445,239.450766 L659.30445,248.291028 L666.517824,248.291028 L666.517824,253.148796 L653.699815,253.148796 L653.699815,220.982495 Z" id="LEARN-\-MAKE-\-SHARE"></path>
            <g id="logo" transform="translate(95.000000, 32.000000)">
                <g id="wrench">
                    <g id="Layer_1">
                        <path d="M105.5,84.0369122 C93.681497,72.8843381 84.5611183,64.2627723 83.5505929,63.264353 C80.4983592,60.2109892 81.5284881,57.3484607 82.4441582,55.1729389 C90.1128953,37.1580925 81.4521823,20.9370973 73.2111513,12.2350105 C64.70305,3.18942023 53.7150087,0.288724618 48.5643644,0.0215552857 C43.451873,-0.245614047 36.5461943,1.96807471 31.7007733,6.81528974 L53.2571737,28.4560057 L49.4800345,49.4860489 L28.457775,53.3027536 L6.90137466,31.6620377 C1.44550696,37.1199255 -0.271374486,43.6464906 0.0338488823,48.5700397 C0.33907225,53.5317559 2.17041246,63.226186 12.2046307,73.2641195 C22.2388489,83.302053 41.5823798,89.4087806 55.1648197,82.3860438 C57.1106187,81.3937006 60.0102407,80.3250233 63.253239,83.4928882 C64.4100156,84.6257309 72.7057226,93.3977637 83.4657193,104.817466 C63.9882195,123.178937 45.4206269,140.667125 45.4206269,140.667125 C38.0189603,147.041022 38.5531012,158.83464 45.382474,165.704709 C52.3263056,172.53661 64.0392524,172.956448 70.4107902,165.590207 C70.4107902,165.590207 87.4207483,147.464195 105.5,128.233407 C123.579252,147.464195 140.58921,165.590207 140.58921,165.590207 C146.960748,172.956448 158.673694,172.53661 165.617526,165.704709 C172.446899,158.83464 172.98104,147.041022 165.579373,140.667125 C165.579373,140.667125 147.011781,123.178937 127.534281,104.817466 C138.294277,93.3977637 146.589984,84.6257309 147.746761,83.4928882 C150.989759,80.3250233 153.889381,81.3937006 155.83518,82.3860438 C169.41762,89.4087806 188.761151,83.302053 198.795369,73.2641195 C208.829588,63.226186 210.660928,53.5317559 210.966151,48.5700397 C211.271374,43.6464906 209.554493,37.1199255 204.098625,31.6620377 L182.542225,53.3027536 L161.519966,49.4860489 L157.742826,28.4560057 L179.299227,6.81528974 C174.453806,1.96807471 167.548127,-0.245614047 162.435636,0.0215552857 C157.284991,0.288724618 146.29695,3.18942023 137.788849,12.2350105 C129.547818,20.9370973 120.887105,37.1580925 128.555842,55.1729389 C129.471512,57.3484607 130.501641,60.2109892 127.449407,63.264353 C126.438882,64.2627723 117.318503,72.8843381 105.5,84.0369122 Z M62.7039002,156.964455 C60.3002661,159.330812 56.4086682,159.330812 54.0431871,156.964455 C51.677706,154.559931 51.677706,150.666892 54.0431871,148.300535 C56.4468211,145.934178 60.3384191,145.934178 62.7039002,148.300535 C65.0693813,150.705059 65.0693813,154.598098 62.7039002,156.964455 Z M148.2961,156.964455 C150.699734,159.330812 154.591332,159.330812 156.956813,156.964455 C159.322294,154.559931 159.322294,150.666892 156.956813,148.300535 C154.553179,145.934178 150.661581,145.934178 148.2961,148.300535 C145.930619,150.705059 145.930619,154.598098 148.2961,156.964455 Z" id="Shape"></path>
                    </g>
                </g>
            </g>
            <polygon id="Path-128" points="178.755183 237 183 226 190.018813 258.127981 198.5 228.5 205 258.127979 212.60788 228.5 220 258.127979 228.5 237 265 237 265 233 225.680466 233 221 244 212.607883 211.800678 205.5 241.5 199.473789 211.726009 191 242 184.5 211.726009 175.600491 233 138.5 233 138.5 237"></polygon>
        </g>
    </g>
</svg>