<?xml version="1.0" encoding="UTF-8" standalone="no"?>
<svg width="594px" height="173px" viewBox="0 0 594 173" version="1.1" xmlns="http://www.w3.org/2000/svg" xmlns:xlink="http://www.w3.org/1999/xlink">
    <!-- Generator: Sketch 3.8.1 (29687) - http://www.bohemiancoding.com/sketch -->
    <title>horizontal/text</title>
    <desc>Created with Sketch.</desc>
    <defs></defs>
    <g id="brand" stroke="none" stroke-width="1" fill="none" fill-rule="evenodd">
        <g id="horizontal/text" fill="#000000">
            <path d="M181.32,0.864 L192.984,0.864 L192.984,69.444 L208.428,69.444 L208.428,80.244 L181.32,80.244 L181.32,0.864 Z M213.18,0.864 L224.844,0.864 L224.844,80.244 L213.18,80.244 L213.18,0.864 Z M233.484,0.864 L260.16,0.864 L260.16,12.852 L245.148,12.852 L245.148,33.696 L255.948,33.696 L255.948,46.44 L245.148,46.44 L245.148,68.256 L260.16,68.256 L260.16,80.244 L233.484,80.244 L233.484,0.864 Z M285.324,29.376 L285.324,17.172 C285.324,15.012 284.892,13.5 283.812,12.204 C283.272,11.664 282.408,11.34 281.436,11.34 C279.384,11.34 278.412,12.852 277.98,14.256 C277.656,15.12 277.548,16.092 277.548,17.172 L277.548,64.908 C277.548,67.176 278.088,68.688 279.168,69.876 C279.708,70.416 280.464,70.74 281.436,70.74 C283.488,70.74 284.46,69.444 284.892,67.824 C285.216,67.068 285.324,66.096 285.324,64.908 L285.324,50.544 L280.68,50.544 L280.68,40.716 L296.988,40.716 L296.988,80.244 L290.076,80.244 L288.672,76.464 C286.512,79.164 283.38,81.108 279.6,81.108 C275.82,81.108 273.228,80.136 271.284,78.408 C269.34,76.788 268.044,74.736 267.18,72.576 C266.208,70.092 265.776,67.176 265.884,63.936 L265.884,17.172 C265.992,14.04 266.64,11.124 267.828,8.64 C268.8,6.48 270.204,4.32 272.364,2.7 C274.524,1.08 277.548,0 281.436,0 C285.324,0 288.24,1.08 290.4,2.7 C292.56,4.32 294.072,6.48 295.044,8.64 C296.232,11.124 296.88,14.04 296.988,17.172 L296.988,29.376 L285.324,29.376 Z M305.52,0.864 L332.196,0.864 L332.196,12.852 L317.184,12.852 L317.184,33.696 L327.984,33.696 L327.984,46.44 L317.184,46.44 L317.184,68.256 L332.196,68.256 L332.196,80.244 L305.52,80.244 L305.52,0.864 Z" id="LIEGE"></path>
            <path d="M202.056,137.684 L192.984,137.684 L192.984,172.244 L181.32,172.244 L181.32,92.864 L192.984,92.864 L192.984,125.696 L202.056,125.696 L202.056,92.864 L213.72,92.864 L213.72,172.244 L202.056,172.244 L202.056,137.684 Z M219.12,172.244 L231.108,92.864 L245.364,92.864 L257.352,172.244 L246.012,172.244 L243.852,156.044 L232.62,156.044 L230.46,172.244 L219.12,172.244 Z M238.884,118.676 L238.56,116.624 L237.912,116.624 L237.588,118.676 L234.24,143.732 L242.232,143.732 L238.884,118.676 Z M293.1,145.028 L293.1,155.936 C292.992,159.176 292.344,162.092 291.156,164.576 C290.184,166.736 288.672,168.788 286.512,170.408 C284.352,172.136 281.436,173.108 277.548,173.108 C273.66,173.108 270.636,172.136 268.476,170.408 C266.316,168.788 264.912,166.736 263.94,164.576 C262.752,162.092 262.104,159.176 261.996,155.936 L261.996,109.172 C262.104,106.04 262.752,103.124 263.94,100.64 C264.912,98.48 266.316,96.32 268.476,94.7 C270.636,93.08 273.66,92 277.548,92 C281.436,92 284.352,93.08 286.512,94.7 C288.672,96.32 290.184,98.48 291.156,100.64 C292.344,103.124 292.992,106.04 293.1,109.172 L293.1,120.08 L282.192,120.08 L282.192,109.172 C282.192,107.012 281.652,105.5 280.464,104.204 C279.924,103.664 278.952,103.34 277.764,103.34 C275.712,103.34 274.74,104.852 274.2,106.256 C273.876,107.12 273.768,108.092 273.66,109.172 L273.66,155.936 C273.768,158.204 274.416,159.716 275.496,160.904 C276.036,161.444 276.792,161.768 277.764,161.768 C280.248,161.768 281.22,160.472 281.76,158.852 C282.084,158.096 282.192,157.124 282.192,155.936 L282.192,145.028 L293.1,145.028 Z M311.784,92.864 L311.784,120.62 L312.216,120.62 L312.756,119.324 L322.476,92.864 L333.816,92.864 L323.124,119 L335.22,172.244 L323.88,172.244 L315.78,137.684 L315.456,136.064 L315.132,136.064 L314.484,137.684 L311.784,144.164 L311.784,172.244 L300.12,172.244 L300.12,92.864 L311.784,92.864 Z M340.62,92.864 L367.296,92.864 L367.296,104.852 L352.284,104.852 L352.284,125.696 L363.084,125.696 L363.084,138.44 L352.284,138.44 L352.284,160.256 L367.296,160.256 L367.296,172.244 L340.62,172.244 L340.62,92.864 Z M394.62,172.244 L388.572,138.764 L385.44,138.764 L385.44,172.244 L373.776,172.244 L373.776,92.864 L385.44,92.864 C399.372,92.864 405.312,100.748 405.312,115.76 C405.312,123.644 403.26,130.772 398.832,133.796 L406.284,172.244 L394.62,172.244 Z M385.44,127.964 C387.06,127.964 389.22,127.748 390.948,126.236 C392.676,124.724 394.08,121.808 394.08,116.192 C394.08,110.576 392.676,107.552 390.948,106.04 C389.22,104.528 387.06,104.42 385.44,104.42 L385.44,127.964 Z M432.096,114.14 C432.096,111.548 431.988,108.632 431.232,106.364 C430.476,104.204 429.288,102.692 427.452,102.692 C424.428,102.8 423.456,105.932 423.456,110.576 C423.456,113.276 424.644,116.084 426.372,119.108 C428.1,122.132 430.368,125.264 432.636,128.612 C435.336,132.608 438.036,136.712 440.088,140.708 C442.14,144.704 443.544,148.808 443.544,153.128 C443.544,158.42 442.68,163.388 440.196,167.06 C437.712,170.732 433.716,173.108 427.344,173.108 C419.892,173.108 415.68,170.3 413.304,165.98 C410.928,161.66 410.388,155.936 410.388,149.996 L421.836,148.916 C421.836,152.264 421.944,155.612 422.808,158.096 C423.564,160.688 424.86,162.416 427.344,162.416 C430.8,162.416 432.096,158.744 432.096,153.668 C432.096,151.076 430.8,148.052 429.072,144.92 C428.1,143.408 427.128,141.788 426.048,140.168 C423.78,136.928 421.296,133.256 418.704,129.26 C416.112,125.264 414.168,121.16 412.98,116.948 C412.332,114.896 412.008,112.736 412.008,110.576 C412.008,106.256 412.98,101.612 415.464,98.048 C417.948,94.592 421.728,92.108 427.236,92 C434.256,91.892 438.36,94.808 440.628,99.02 C442.896,103.34 443.544,108.632 443.544,113.06 L432.096,114.14 Z M449.808,92.864 L461.472,92.864 C466.548,92.864 471.624,94.16 475.512,97.832 C479.4,101.504 481.992,107.552 481.992,116.624 C481.992,125.696 479.4,131.636 475.512,135.308 C471.624,138.98 466.548,140.492 461.472,140.492 L461.472,172.244 L449.808,172.244 L449.808,92.864 Z M461.472,128.612 C465.036,128.612 467.304,127.964 468.6,126.128 C469.896,124.4 470.22,121.484 470.22,117.056 C470.22,112.628 469.896,109.496 468.6,107.552 C467.304,105.608 465.036,104.744 461.472,104.744 L461.472,128.612 Z M484.584,172.244 L496.572,92.864 L510.828,92.864 L522.816,172.244 L511.476,172.244 L509.316,156.044 L498.084,156.044 L495.924,172.244 L484.584,172.244 Z M504.348,118.676 L504.024,116.624 L503.376,116.624 L503.052,118.676 L499.704,143.732 L507.696,143.732 L504.348,118.676 Z M558.564,145.028 L558.564,155.936 C558.456,159.176 557.808,162.092 556.62,164.576 C555.648,166.736 554.136,168.788 551.976,170.408 C549.816,172.136 546.9,173.108 543.012,173.108 C539.124,173.108 536.1,172.136 533.94,170.408 C531.78,168.788 530.376,166.736 529.404,164.576 C528.216,162.092 527.568,159.176 527.46,155.936 L527.46,109.172 C527.568,106.04 528.216,103.124 529.404,100.64 C530.376,98.48 531.78,96.32 533.94,94.7 C536.1,93.08 539.124,92 543.012,92 C546.9,92 549.816,93.08 551.976,94.7 C554.136,96.32 555.648,98.48 556.62,100.64 C557.808,103.124 558.456,106.04 558.564,109.172 L558.564,120.08 L547.656,120.08 L547.656,109.172 C547.656,107.012 547.116,105.5 545.928,104.204 C545.388,103.664 544.416,103.34 543.228,103.34 C541.176,103.34 540.204,104.852 539.664,106.256 C539.34,107.12 539.232,108.092 539.124,109.172 L539.124,155.936 C539.232,158.204 539.88,159.716 540.96,160.904 C541.5,161.444 542.256,161.768 543.228,161.768 C545.712,161.768 546.684,160.472 547.224,158.852 C547.548,158.096 547.656,157.124 547.656,155.936 L547.656,145.028 L558.564,145.028 Z M565.584,92.864 L592.26,92.864 L592.26,104.852 L577.248,104.852 L577.248,125.696 L588.048,125.696 L588.048,138.44 L577.248,138.44 L577.248,160.256 L592.26,160.256 L592.26,172.244 L565.584,172.244 L565.584,92.864 Z" id="HACKERSPACE"></path>
            <path d="M202.056,137.684 L192.984,137.684 L192.984,172.244 L181.32,172.244 L181.32,92.864 L192.984,92.864 L192.984,125.696 L202.056,125.696 L202.056,92.864 L213.72,92.864 L213.72,172.244 L202.056,172.244 L202.056,137.684 Z M219.12,172.244 L231.108,92.864 L245.364,92.864 L257.352,172.244 L246.012,172.244 L243.852,156.044 L232.62,156.044 L230.46,172.244 L219.12,172.244 Z M238.884,118.676 L238.56,116.624 L237.912,116.624 L237.588,118.676 L234.24,143.732 L242.232,143.732 L238.884,118.676 Z M293.1,145.028 L293.1,155.936 C292.992,159.176 292.344,162.092 291.156,164.576 C290.184,166.736 288.672,168.788 286.512,170.408 C284.352,172.136 281.436,173.108 277.548,173.108 C273.66,173.108 270.636,172.136 268.476,170.408 C266.316,168.788 264.912,166.736 263.94,164.576 C262.752,162.092 262.104,159.176 261.996,155.936 L261.996,109.172 C262.104,106.04 262.752,103.124 263.94,100.64 C264.912,98.48 266.316,96.32 268.476,94.7 C270.636,93.08 273.66,92 277.548,92 C281.436,92 284.352,93.08 286.512,94.7 C288.672,96.32 290.184,98.48 291.156,100.64 C292.344,103.124 292.992,106.04 293.1,109.172 L293.1,120.08 L282.192,120.08 L282.192,109.172 C282.192,107.012 281.652,105.5 280.464,104.204 C279.924,103.664 278.952,103.34 277.764,103.34 C275.712,103.34 274.74,104.852 274.2,106.256 C273.876,107.12 273.768,108.092 273.66,109.172 L273.66,155.936 C273.768,158.204 274.416,159.716 275.496,160.904 C276.036,161.444 276.792,161.768 277.764,161.768 C280.248,161.768 281.22,160.472 281.76,158.852 C282.084,158.096 282.192,157.124 282.192,155.936 L282.192,145.028 L293.1,145.028 Z M311.784,92.864 L311.784,120.62 L312.216,120.62 L312.756,119.324 L322.476,92.864 L333.816,92.864 L323.124,119 L335.22,172.244 L323.88,172.244 L315.78,137.684 L315.456,136.064 L315.132,136.064 L314.484,137.684 L311.784,144.164 L311.784,172.244 L300.12,172.244 L300.12,92.864 L311.784,92.864 Z M340.62,92.864 L367.296,92.864 L367.296,104.852 L352.284,104.852 L352.284,125.696 L363.084,125.696 L363.084,138.44 L352.284,138.44 L352.284,160.256 L367.296,160.256 L367.296,172.244 L340.62,172.244 L340.62,92.864 Z M394.62,172.244 L388.572,138.764 L385.44,138.764 L385.44,172.244 L373.776,172.244 L373.776,92.864 L385.44,92.864 C399.372,92.864 405.312,100.748 405.312,115.76 C405.312,123.644 403.26,130.772 398.832,133.796 L406.284,172.244 L394.62,172.244 Z M385.44,127.964 C387.06,127.964 389.22,127.748 390.948,126.236 C392.676,124.724 394.08,121.808 394.08,116.192 C394.08,110.576 392.676,107.552 390.948,106.04 C389.22,104.528 387.06,104.42 385.44,104.42 L385.44,127.964 Z M432.096,114.14 C432.096,111.548 431.988,108.632 431.232,106.364 C430.476,104.204 429.288,102.692 427.452,102.692 C424.428,102.8 423.456,105.932 423.456,110.576 C423.456,113.276 424.644,116.084 426.372,119.108 C428.1,122.132 430.368,125.264 432.636,128.612 C435.336,132.608 438.036,136.712 440.088,140.708 C442.14,144.704 443.544,148.808 443.544,153.128 C443.544,158.42 442.68,163.388 440.196,167.06 C437.712,170.732 433.716,173.108 427.344,173.108 C419.892,173.108 415.68,170.3 413.304,165.98 C410.928,161.66 410.388,155.936 410.388,149.996 L421.836,148.916 C421.836,152.264 421.944,155.612 422.808,158.096 C423.564,160.688 424.86,162.416 427.344,162.416 C430.8,162.416 432.096,158.744 432.096,153.668 C432.096,151.076 430.8,148.052 429.072,144.92 C428.1,143.408 427.128,141.788 426.048,140.168 C423.78,136.928 421.296,133.256 418.704,129.26 C416.112,125.264 414.168,121.16 412.98,116.948 C412.332,114.896 412.008,112.736 412.008,110.576 C412.008,106.256 412.98,101.612 415.464,98.048 C417.948,94.592 421.728,92.108 427.236,92 C434.256,91.892 438.36,94.808 440.628,99.02 C442.896,103.34 443.544,108.632 443.544,113.06 L432.096,114.14 Z M449.808,92.864 L461.472,92.864 C466.548,92.864 471.624,94.16 475.512,97.832 C479.4,101.504 481.992,107.552 481.992,116.624 C481.992,125.696 479.4,131.636 475.512,135.308 C471.624,138.98 466.548,140.492 461.472,140.492 L461.472,172.244 L449.808,172.244 L449.808,92.864 Z M461.472,128.612 C465.036,128.612 467.304,127.964 468.6,126.128 C469.896,124.4 470.22,121.484 470.22,117.056 C470.22,112.628 469.896,109.496 468.6,107.552 C467.304,105.608 465.036,104.744 461.472,104.744 L461.472,128.612 Z M484.584,172.244 L496.572,92.864 L510.828,92.864 L522.816,172.244 L511.476,172.244 L509.316,156.044 L498.084,156.044 L495.924,172.244 L484.584,172.244 Z M504.348,118.676 L504.024,116.624 L503.376,116.624 L503.052,118.676 L499.704,143.732 L507.696,143.732 L504.348,118.676 Z M558.564,145.028 L558.564,155.936 C558.456,159.176 557.808,162.092 556.62,164.576 C555.648,166.736 554.136,168.788 551.976,170.408 C549.816,172.136 546.9,173.108 543.012,173.108 C539.124,173.108 536.1,172.136 533.94,170.408 C531.78,168.788 530.376,166.736 529.404,164.576 C528.216,162.092 527.568,159.176 527.46,155.936 L527.46,109.172 C527.568,106.04 528.216,103.124 529.404,100.64 C530.376,98.48 531.78,96.32 533.94,94.7 C536.1,93.08 539.124,92 543.012,92 C546.9,92 549.816,93.08 551.976,94.7 C554.136,96.32 555.648,98.48 556.62,100.64 C557.808,103.124 558.456,106.04 558.564,109.172 L558.564,120.08 L547.656,120.08 L547.656,109.172 C547.656,107.012 547.116,105.5 545.928,104.204 C545.388,103.664 544.416,103.34 543.228,103.34 C541.176,103.34 540.204,104.852 539.664,106.256 C539.34,107.12 539.232,108.092 539.124,109.172 L539.124,155.936 C539.232,158.204 539.88,159.716 540.96,160.904 C541.5,161.444 542.256,161.768 543.228,161.768 C545.712,161.768 546.684,160.472 547.224,158.852 C547.548,158.096 547.656,157.124 547.656,155.936 L547.656,145.028 L558.564,145.028 Z M565.584,92.864 L592.26,92.864 L592.26,104.852 L577.248,104.852 L577.248,125.696 L588.048,125.696 L588.048,138.44 L577.248,138.44 L577.248,160.256 L592.26,160.256 L592.26,172.244 L565.584,172.244 L565.584,92.864 Z" id="HACKERSPACE"></path>
            <g id="logo">
                <g id="wrench">
                    <g id="Layer_1">
                        <path d="M81,64.3791549 C71.9260783,55.8353701 64.9237022,49.2305449 64.1478486,48.465674 C61.8044275,46.1265473 62.5953321,43.9336161 63.2983584,42.2669883 C69.186204,28.4661411 62.5367466,16.0395307 56.2095096,9.37301973 C49.6772232,2.44335702 41.2409072,0.221186696 37.286384,0.0165131136 C33.3611537,-0.188160469 28.0591634,1.50770636 24.3389823,5.22106992 L40.889394,21.7996301 L37.9894104,37.9103649 L21.8490974,40.8342732 L5.29868576,24.2557131 C1.10982051,28.436902 -0.20835387,33.4367852 0.0259882414,37.2086269 C0.260330353,41.0097077 1.66638302,48.4364349 9.37037995,56.1263137 C17.0743769,63.8161926 31.9258082,68.4944459 42.3540322,63.1144546 C43.8479632,62.3542385 46.0742132,61.5355441 48.5640982,63.962388 C49.4522394,64.8302383 55.8214552,71.5503336 64.082685,80.2987603 C49.128396,94.3651503 34.8727088,107.762535 34.8727088,107.762535 C29.1899126,112.645462 29.6000113,121.680338 34.8434161,126.943373 C40.1746991,132.177169 49.1675777,132.498799 54.0594692,126.855656 C54.0594692,126.855656 67.1192475,112.969647 81,98.2372884 C94.8807525,112.969647 107.940531,126.855656 107.940531,126.855656 C112.832422,132.498799 121.825301,132.177169 127.156584,126.943373 C132.399989,121.680338 132.810087,112.645462 127.127291,107.762535 C127.127291,107.762535 112.871604,94.3651503 97.917315,80.2987603 C106.178545,71.5503336 112.547761,64.8302383 113.435902,63.962388 C115.925787,61.5355441 118.152037,62.3542385 119.645968,63.1144546 C130.074192,68.4944459 144.925623,63.8161926 152.62962,56.1263137 C160.333617,48.4364349 161.73967,41.0097077 161.974012,37.2086269 C162.208354,33.4367852 160.890179,28.436902 156.701314,24.2557131 L140.150903,40.8342732 L124.01059,37.9103649 L121.110606,21.7996301 L137.661018,5.22106992 C133.940837,1.50770636 128.638846,-0.188160469 124.713616,0.0165131136 C120.759093,0.221186696 112.322777,2.44335702 105.79049,9.37301973 C99.4632534,16.0395307 92.813796,28.4661411 98.7016416,42.2669883 C99.4046679,43.9336161 100.195573,46.1265473 97.8521514,48.465674 C97.0762978,49.2305449 90.0739217,55.8353701 81,64.3791549 Z M48.1423309,120.247623 C46.2968868,122.060446 43.3090249,122.060446 41.4928735,120.247623 C39.6767221,118.405561 39.6767221,115.423174 41.4928735,113.610351 C43.3383176,111.797528 46.3261796,111.797528 48.1423309,113.610351 C49.9584823,115.452414 49.9584823,118.4348 48.1423309,120.247623 Z M113.857669,120.247623 C115.703113,122.060446 118.690975,122.060446 120.507127,120.247623 C122.323278,118.405561 122.323278,115.423174 120.507127,113.610351 C118.661682,111.797528 115.67382,111.797528 113.857669,113.610351 C112.041518,115.452414 112.041518,118.4348 113.857669,120.247623 Z" id="Shape"></path>
                    </g>
                </g>
            </g>
            <polygon id="Path-128" points="62.9813902 156.6165 66.3537549 147.87737 71.9299659 173.401971 78.6679842 149.863536 83.8320158 173.40197 89.8762206 149.863536 95.7490119 173.40197 102.501976 156.6165 131.5 156.6165 131.5 153.438635 100.261951 153.438635 96.5434783 162.177765 89.8762235 136.596486 84.229249 160.191599 79.4416266 136.537164 72.7094862 160.588832 67.5454545 136.537164 60.4750933 153.438635 31 153.438635 31 156.6165"></polygon>
        </g>
    </g>
</svg>