<?xml version="1.0" encoding="UTF-8" standalone="no"?>
<svg width="652px" height="225px" viewBox="0 0 652 225" version="1.1" xmlns="http://www.w3.org/2000/svg" xmlns:xlink="http://www.w3.org/1999/xlink">
    <!-- Generator: Sketch 3.8.1 (29687) - http://www.bohemiancoding.com/sketch -->
    <title>horizontal/text-baseline</title>
    <desc>Created with Sketch.</desc>
    <defs></defs>
    <g id="brand" stroke="none" stroke-width="1" fill="none" fill-rule="evenodd">
        <g id="horizontal/text-baseline" fill="#000000">
            <path d="M241.32,0.864 L252.984,0.864 L252.984,69.444 L268.428,69.444 L268.428,80.244 L241.32,80.244 L241.32,0.864 Z M273.18,0.864 L284.844,0.864 L284.844,80.244 L273.18,80.244 L273.18,0.864 Z M293.484,0.864 L320.16,0.864 L320.16,12.852 L305.148,12.852 L305.148,33.696 L315.948,33.696 L315.948,46.44 L305.148,46.44 L305.148,68.256 L320.16,68.256 L320.16,80.244 L293.484,80.244 L293.484,0.864 Z M345.324,29.376 L345.324,17.172 C345.324,15.012 344.892,13.5 343.812,12.204 C343.272,11.664 342.408,11.34 341.436,11.34 C339.384,11.34 338.412,12.852 337.98,14.256 C337.656,15.12 337.548,16.092 337.548,17.172 L337.548,64.908 C337.548,67.176 338.088,68.688 339.168,69.876 C339.708,70.416 340.464,70.74 341.436,70.74 C343.488,70.74 344.46,69.444 344.892,67.824 C345.216,67.068 345.324,66.096 345.324,64.908 L345.324,50.544 L340.68,50.544 L340.68,40.716 L356.988,40.716 L356.988,80.244 L350.076,80.244 L348.672,76.464 C346.512,79.164 343.38,81.108 339.6,81.108 C335.82,81.108 333.228,80.136 331.284,78.408 C329.34,76.788 328.044,74.736 327.18,72.576 C326.208,70.092 325.776,67.176 325.884,63.936 L325.884,17.172 C325.992,14.04 326.64,11.124 327.828,8.64 C328.8,6.48 330.204,4.32 332.364,2.7 C334.524,1.08 337.548,0 341.436,0 C345.324,0 348.24,1.08 350.4,2.7 C352.56,4.32 354.072,6.48 355.044,8.64 C356.232,11.124 356.88,14.04 356.988,17.172 L356.988,29.376 L345.324,29.376 Z M365.52,0.864 L392.196,0.864 L392.196,12.852 L377.184,12.852 L377.184,33.696 L387.984,33.696 L387.984,46.44 L377.184,46.44 L377.184,68.256 L392.196,68.256 L392.196,80.244 L365.52,80.244 L365.52,0.864 Z" id="LIEGE"></path>
            <path d="M262.056,137.684 L252.984,137.684 L252.984,172.244 L241.32,172.244 L241.32,92.864 L252.984,92.864 L252.984,125.696 L262.056,125.696 L262.056,92.864 L273.72,92.864 L273.72,172.244 L262.056,172.244 L262.056,137.684 Z M279.12,172.244 L291.108,92.864 L305.364,92.864 L317.352,172.244 L306.012,172.244 L303.852,156.044 L292.62,156.044 L290.46,172.244 L279.12,172.244 Z M298.884,118.676 L298.56,116.624 L297.912,116.624 L297.588,118.676 L294.24,143.732 L302.232,143.732 L298.884,118.676 Z M353.1,145.028 L353.1,155.936 C352.992,159.176 352.344,162.092 351.156,164.576 C350.184,166.736 348.672,168.788 346.512,170.408 C344.352,172.136 341.436,173.108 337.548,173.108 C333.66,173.108 330.636,172.136 328.476,170.408 C326.316,168.788 324.912,166.736 323.94,164.576 C322.752,162.092 322.104,159.176 321.996,155.936 L321.996,109.172 C322.104,106.04 322.752,103.124 323.94,100.64 C324.912,98.48 326.316,96.32 328.476,94.7 C330.636,93.08 333.66,92 337.548,92 C341.436,92 344.352,93.08 346.512,94.7 C348.672,96.32 350.184,98.48 351.156,100.64 C352.344,103.124 352.992,106.04 353.1,109.172 L353.1,120.08 L342.192,120.08 L342.192,109.172 C342.192,107.012 341.652,105.5 340.464,104.204 C339.924,103.664 338.952,103.34 337.764,103.34 C335.712,103.34 334.74,104.852 334.2,106.256 C333.876,107.12 333.768,108.092 333.66,109.172 L333.66,155.936 C333.768,158.204 334.416,159.716 335.496,160.904 C336.036,161.444 336.792,161.768 337.764,161.768 C340.248,161.768 341.22,160.472 341.76,158.852 C342.084,158.096 342.192,157.124 342.192,155.936 L342.192,145.028 L353.1,145.028 Z M371.784,92.864 L371.784,120.62 L372.216,120.62 L372.756,119.324 L382.476,92.864 L393.816,92.864 L383.124,119 L395.22,172.244 L383.88,172.244 L375.78,137.684 L375.456,136.064 L375.132,136.064 L374.484,137.684 L371.784,144.164 L371.784,172.244 L360.12,172.244 L360.12,92.864 L371.784,92.864 Z M400.62,92.864 L427.296,92.864 L427.296,104.852 L412.284,104.852 L412.284,125.696 L423.084,125.696 L423.084,138.44 L412.284,138.44 L412.284,160.256 L427.296,160.256 L427.296,172.244 L400.62,172.244 L400.62,92.864 Z M454.62,172.244 L448.572,138.764 L445.44,138.764 L445.44,172.244 L433.776,172.244 L433.776,92.864 L445.44,92.864 C459.372,92.864 465.312,100.748 465.312,115.76 C465.312,123.644 463.26,130.772 458.832,133.796 L466.284,172.244 L454.62,172.244 Z M445.44,127.964 C447.06,127.964 449.22,127.748 450.948,126.236 C452.676,124.724 454.08,121.808 454.08,116.192 C454.08,110.576 452.676,107.552 450.948,106.04 C449.22,104.528 447.06,104.42 445.44,104.42 L445.44,127.964 Z M492.096,114.14 C492.096,111.548 491.988,108.632 491.232,106.364 C490.476,104.204 489.288,102.692 487.452,102.692 C484.428,102.8 483.456,105.932 483.456,110.576 C483.456,113.276 484.644,116.084 486.372,119.108 C488.1,122.132 490.368,125.264 492.636,128.612 C495.336,132.608 498.036,136.712 500.088,140.708 C502.14,144.704 503.544,148.808 503.544,153.128 C503.544,158.42 502.68,163.388 500.196,167.06 C497.712,170.732 493.716,173.108 487.344,173.108 C479.892,173.108 475.68,170.3 473.304,165.98 C470.928,161.66 470.388,155.936 470.388,149.996 L481.836,148.916 C481.836,152.264 481.944,155.612 482.808,158.096 C483.564,160.688 484.86,162.416 487.344,162.416 C490.8,162.416 492.096,158.744 492.096,153.668 C492.096,151.076 490.8,148.052 489.072,144.92 C488.1,143.408 487.128,141.788 486.048,140.168 C483.78,136.928 481.296,133.256 478.704,129.26 C476.112,125.264 474.168,121.16 472.98,116.948 C472.332,114.896 472.008,112.736 472.008,110.576 C472.008,106.256 472.98,101.612 475.464,98.048 C477.948,94.592 481.728,92.108 487.236,92 C494.256,91.892 498.36,94.808 500.628,99.02 C502.896,103.34 503.544,108.632 503.544,113.06 L492.096,114.14 Z M509.808,92.864 L521.472,92.864 C526.548,92.864 531.624,94.16 535.512,97.832 C539.4,101.504 541.992,107.552 541.992,116.624 C541.992,125.696 539.4,131.636 535.512,135.308 C531.624,138.98 526.548,140.492 521.472,140.492 L521.472,172.244 L509.808,172.244 L509.808,92.864 Z M521.472,128.612 C525.036,128.612 527.304,127.964 528.6,126.128 C529.896,124.4 530.22,121.484 530.22,117.056 C530.22,112.628 529.896,109.496 528.6,107.552 C527.304,105.608 525.036,104.744 521.472,104.744 L521.472,128.612 Z M544.584,172.244 L556.572,92.864 L570.828,92.864 L582.816,172.244 L571.476,172.244 L569.316,156.044 L558.084,156.044 L555.924,172.244 L544.584,172.244 Z M564.348,118.676 L564.024,116.624 L563.376,116.624 L563.052,118.676 L559.704,143.732 L567.696,143.732 L564.348,118.676 Z M618.564,145.028 L618.564,155.936 C618.456,159.176 617.808,162.092 616.62,164.576 C615.648,166.736 614.136,168.788 611.976,170.408 C609.816,172.136 606.9,173.108 603.012,173.108 C599.124,173.108 596.1,172.136 593.94,170.408 C591.78,168.788 590.376,166.736 589.404,164.576 C588.216,162.092 587.568,159.176 587.46,155.936 L587.46,109.172 C587.568,106.04 588.216,103.124 589.404,100.64 C590.376,98.48 591.78,96.32 593.94,94.7 C596.1,93.08 599.124,92 603.012,92 C606.9,92 609.816,93.08 611.976,94.7 C614.136,96.32 615.648,98.48 616.62,100.64 C617.808,103.124 618.456,106.04 618.564,109.172 L618.564,120.08 L607.656,120.08 L607.656,109.172 C607.656,107.012 607.116,105.5 605.928,104.204 C605.388,103.664 604.416,103.34 603.228,103.34 C601.176,103.34 600.204,104.852 599.664,106.256 C599.34,107.12 599.232,108.092 599.124,109.172 L599.124,155.936 C599.232,158.204 599.88,159.716 600.96,160.904 C601.5,161.444 602.256,161.768 603.228,161.768 C605.712,161.768 606.684,160.472 607.224,158.852 C607.548,158.096 607.656,157.124 607.656,155.936 L607.656,145.028 L618.564,145.028 Z M625.584,92.864 L652.26,92.864 L652.26,104.852 L637.248,104.852 L637.248,125.696 L648.048,125.696 L648.048,138.44 L637.248,138.44 L637.248,160.256 L652.26,160.256 L652.26,172.244 L625.584,172.244 L625.584,92.864 Z" id="HACKERSPACE"></path>
            <polygon id="Shape" points="592.731707 207 651.268293 207 652 207 652 203 651.268293 203 592.731707 203 592 203 592 207"></polygon>
            <path d="M241,188.982495 L246.604636,188.982495 L246.604636,216.772429 L254.025589,216.772429 L254.025589,221.148796 L241,221.148796 L241,188.982495 Z M256.308959,188.982495 L269.126968,188.982495 L269.126968,193.840263 L261.913594,193.840263 L261.913594,202.286652 L267.103072,202.286652 L267.103072,207.450766 L261.913594,207.450766 L261.913594,216.291028 L269.126968,216.291028 L269.126968,221.148796 L256.308959,221.148796 L256.308959,188.982495 Z M270.787601,221.148796 L276.547921,188.982495 L283.398031,188.982495 L289.158352,221.148796 L283.7094,221.148796 L282.671505,214.584245 L277.274448,214.584245 L276.236552,221.148796 L270.787601,221.148796 Z M280.284345,199.442013 L280.128661,198.610503 L279.817292,198.610503 L279.661608,199.442013 L278.05287,209.595186 L281.893083,209.595186 L280.284345,199.442013 Z M301.768782,221.148796 L298.862675,207.582057 L297.357726,207.582057 L297.357726,221.148796 L291.75309,221.148796 L291.75309,188.982495 L297.357726,188.982495 C304.052152,188.982495 306.906365,192.177243 306.906365,198.260394 C306.906365,201.455142 305.920364,204.343545 303.792678,205.568928 L307.373418,221.148796 L301.768782,221.148796 Z M297.357726,203.205689 C298.136148,203.205689 299.174043,203.118162 300.00436,202.50547 C300.834676,201.892779 301.509308,200.71116 301.509308,198.435449 C301.509308,196.159737 300.834676,194.934354 300.00436,194.321663 C299.174043,193.708972 298.136148,193.665208 297.357726,193.665208 L297.357726,203.205689 Z M316.403109,204.387309 L315.936056,202.899344 L315.624687,202.899344 L315.624687,221.148796 L310.487104,221.148796 L310.487104,188.982495 L315.469003,188.982495 L320.917954,205.743982 L321.385007,207.231947 L321.696376,207.231947 L321.696376,188.982495 L326.833958,188.982495 L326.833958,221.148796 L321.85206,221.148796 L316.403109,204.387309 Z M356.777244,225 L352.521872,225 L337.109124,185 L341.208811,185 L356.777244,225 Z M376.341574,221.148796 L372.760835,200.929978 L372.553256,199.573304 L372.241887,199.573304 L372.241887,221.148796 L367.052409,221.148796 L367.052409,188.982495 L373.90252,188.982495 L377.223785,203.68709 L377.483259,205.393873 L377.587049,205.393873 L377.846523,203.68709 L381.167788,188.982495 L388.017899,188.982495 L388.017899,221.148796 L382.828421,221.148796 L382.828421,199.573304 L382.517052,199.573304 L382.309473,200.929978 L378.728734,221.148796 L376.341574,221.148796 Z M390.612637,221.148796 L396.372957,188.982495 L403.223068,188.982495 L408.983388,221.148796 L403.534436,221.148796 L402.496541,214.584245 L397.099484,214.584245 L396.061589,221.148796 L390.612637,221.148796 Z M400.109381,199.442013 L399.953697,198.610503 L399.642328,198.610503 L399.486644,199.442013 L397.877906,209.595186 L401.718119,209.595186 L400.109381,199.442013 Z M417.182762,188.982495 L417.182762,200.229759 L417.390341,200.229759 L417.649815,199.704595 L422.320345,188.982495 L427.769296,188.982495 L422.631714,199.573304 L428.443929,221.148796 L422.994977,221.148796 L419.102869,207.14442 L418.947185,206.487965 L418.7915,206.487965 L418.480132,207.14442 L417.182762,209.770241 L417.182762,221.148796 L411.578127,221.148796 L411.578127,188.982495 L417.182762,188.982495 Z M431.038667,188.982495 L443.856677,188.982495 L443.856677,193.840263 L436.643303,193.840263 L436.643303,202.286652 L441.832781,202.286652 L441.832781,207.450766 L436.643303,207.450766 L436.643303,216.291028 L443.856677,216.291028 L443.856677,221.148796 L431.038667,221.148796 L431.038667,188.982495 Z M472.762067,225 L468.506695,225 L453.093947,185 L457.193634,185 L472.762067,225 Z M492.326397,197.603939 C492.326397,196.553611 492.274502,195.371991 491.911239,194.452954 C491.547975,193.577681 490.977133,192.964989 490.094922,192.964989 C488.641868,193.008753 488.174815,194.277899 488.174815,196.159737 C488.174815,197.253829 488.745658,198.391685 489.575974,199.617068 C490.40629,200.842451 491.496081,202.111597 492.585871,203.468271 C493.88324,205.087527 495.18061,206.750547 496.16661,208.369803 C497.152611,209.989059 497.827243,211.652079 497.827243,213.402626 C497.827243,215.547046 497.412085,217.560175 496.218505,219.04814 C495.024925,220.536105 493.104819,221.498906 490.043027,221.498906 C486.462287,221.498906 484.438391,220.36105 483.296706,218.610503 C482.155021,216.859956 481.895547,214.540481 481.895547,212.133479 L487.396393,211.695842 C487.396393,213.052516 487.448288,214.40919 487.863446,215.415755 C488.22671,216.466083 488.849447,217.166302 490.043027,217.166302 C491.70366,217.166302 492.326397,215.678337 492.326397,213.621444 C492.326397,212.571116 491.70366,211.345733 490.873343,210.076586 C490.40629,209.463895 489.939237,208.80744 489.42029,208.150985 C488.330499,206.838074 487.136919,205.350109 485.891445,203.730853 C484.64597,202.111597 483.711864,200.448578 483.141022,198.741794 C482.829653,197.910284 482.673969,197.035011 482.673969,196.159737 C482.673969,194.40919 483.141022,192.527352 484.334602,191.083151 C485.528181,189.682713 487.344499,188.676149 489.991132,188.632385 C493.364293,188.588621 495.336294,189.770241 496.426084,191.477024 C497.515875,193.227571 497.827243,195.371991 497.827243,197.166302 L492.326397,197.603939 Z M510.800937,207.14442 L506.441776,207.14442 L506.441776,221.148796 L500.83714,221.148796 L500.83714,188.982495 L506.441776,188.982495 L506.441776,202.286652 L510.800937,202.286652 L510.800937,188.982495 L516.405573,188.982495 L516.405573,221.148796 L510.800937,221.148796 L510.800937,207.14442 Z M519.000312,221.148796 L524.760632,188.982495 L531.610742,188.982495 L537.371062,221.148796 L531.922111,221.148796 L530.884215,214.584245 L525.487158,214.584245 L524.449263,221.148796 L519.000312,221.148796 Z M528.497055,199.442013 L528.341371,198.610503 L528.030002,198.610503 L527.874318,199.442013 L526.26558,209.595186 L530.105793,209.595186 L528.497055,199.442013 Z M549.981492,221.148796 L547.075385,207.582057 L545.570437,207.582057 L545.570437,221.148796 L539.965801,221.148796 L539.965801,188.982495 L545.570437,188.982495 C552.264863,188.982495 555.119075,192.177243 555.119075,198.260394 C555.119075,201.455142 554.133074,204.343545 552.005389,205.568928 L555.586128,221.148796 L549.981492,221.148796 Z M545.570437,203.205689 C546.348858,203.205689 547.386754,203.118162 548.21707,202.50547 C549.047386,201.892779 549.722019,200.71116 549.722019,198.435449 C549.722019,196.159737 549.047386,194.934354 548.21707,194.321663 C547.386754,193.708972 546.348858,193.665208 545.570437,193.665208 L545.570437,203.205689 Z M558.699815,188.982495 L571.517824,188.982495 L571.517824,193.840263 L564.30445,193.840263 L564.30445,202.286652 L569.493928,202.286652 L569.493928,207.450766 L564.30445,207.450766 L564.30445,216.291028 L571.517824,216.291028 L571.517824,221.148796 L558.699815,221.148796 L558.699815,188.982495 Z" id="LEARN-\-MAKE-\-SHARE"></path>
            <g id="logo">
                <g id="wrench">
                    <g id="Layer_1">
                        <path d="M105.5,84.0369122 C93.681497,72.8843381 84.5611183,64.2627723 83.5505929,63.264353 C80.4983592,60.2109892 81.5284881,57.3484607 82.4441582,55.1729389 C90.1128953,37.1580925 81.4521823,20.9370973 73.2111513,12.2350105 C64.70305,3.18942023 53.7150087,0.288724618 48.5643644,0.0215552857 C43.451873,-0.245614047 36.5461943,1.96807471 31.7007733,6.81528974 L53.2571737,28.4560057 L49.4800345,49.4860489 L28.457775,53.3027536 L6.90137466,31.6620377 C1.44550696,37.1199255 -0.271374486,43.6464906 0.0338488823,48.5700397 C0.33907225,53.5317559 2.17041246,63.226186 12.2046307,73.2641195 C22.2388489,83.302053 41.5823798,89.4087806 55.1648197,82.3860438 C57.1106187,81.3937006 60.0102407,80.3250233 63.253239,83.4928882 C64.4100156,84.6257309 72.7057226,93.3977637 83.4657193,104.817466 C63.9882195,123.178937 45.4206269,140.667125 45.4206269,140.667125 C38.0189603,147.041022 38.5531012,158.83464 45.382474,165.704709 C52.3263056,172.53661 64.0392524,172.956448 70.4107902,165.590207 C70.4107902,165.590207 87.4207483,147.464195 105.5,128.233407 C123.579252,147.464195 140.58921,165.590207 140.58921,165.590207 C146.960748,172.956448 158.673694,172.53661 165.617526,165.704709 C172.446899,158.83464 172.98104,147.041022 165.579373,140.667125 C165.579373,140.667125 147.011781,123.178937 127.534281,104.817466 C138.294277,93.3977637 146.589984,84.6257309 147.746761,83.4928882 C150.989759,80.3250233 153.889381,81.3937006 155.83518,82.3860438 C169.41762,89.4087806 188.761151,83.302053 198.795369,73.2641195 C208.829588,63.226186 210.660928,53.5317559 210.966151,48.5700397 C211.271374,43.6464906 209.554493,37.1199255 204.098625,31.6620377 L182.542225,53.3027536 L161.519966,49.4860489 L157.742826,28.4560057 L179.299227,6.81528974 C174.453806,1.96807471 167.548127,-0.245614047 162.435636,0.0215552857 C157.284991,0.288724618 146.29695,3.18942023 137.788849,12.2350105 C129.547818,20.9370973 120.887105,37.1580925 128.555842,55.1729389 C129.471512,57.3484607 130.501641,60.2109892 127.449407,63.264353 C126.438882,64.2627723 117.318503,72.8843381 105.5,84.0369122 Z M62.7039002,156.964455 C60.3002661,159.330812 56.4086682,159.330812 54.0431871,156.964455 C51.677706,154.559931 51.677706,150.666892 54.0431871,148.300535 C56.4468211,145.934178 60.3384191,145.934178 62.7039002,148.300535 C65.0693813,150.705059 65.0693813,154.598098 62.7039002,156.964455 Z M148.2961,156.964455 C150.699734,159.330812 154.591332,159.330812 156.956813,156.964455 C159.322294,154.559931 159.322294,150.666892 156.956813,148.300535 C154.553179,145.934178 150.661581,145.934178 148.2961,148.300535 C145.930619,150.705059 145.930619,154.598098 148.2961,156.964455 Z" id="Shape"></path>
                    </g>
                </g>
                <polygon id="Path-128" points="82.4379321 205 83.7551827 205 84.2753743 203.789814 88 195 88 194.5 93.3652851 218.419472 95.0188128 226.127981 97.2397988 218.563426 106.047928 188.563426 102.169704 188.401783 108.321864 218.401783 110.105133 227.097603 112.223317 218.477241 119.594876 188.477241 115.715751 188.49842 123.435622 218.49842 124.874212 224.088891 127.202609 218.806707 133.814638 203.806707 131.984549 205 170 205 170 201 131.984549 201 130.680466 201 130.15446 202.193293 123.542432 217.193293 127.309419 217.50158 119.589549 187.50158 117.607883 179.800678 115.710424 187.522759 108.338865 217.522759 112.240318 217.598217 106.088158 187.598217 104.473789 179.726009 102.209934 187.436574 93.4018039 217.436574 97.2763175 217.580528 90.8411132 187.580528 89.525429 181.446997 87.0481549 187.210186 80.6004899 202.210186 82.4379321 201 43.5 201 43.5 205"></polygon>
            </g>
        </g>
    </g>
</svg>